<?xml version="1.0" encoding="iso-8859-1"?>
<!-- Generator: Adobe Illustrator 19.0.0, SVG Export Plug-In . SVG Version: 6.00 Build 0)  -->
<svg version="1.1" id="Layer_1" xmlns="http://www.w3.org/2000/svg" xmlns:xlink="http://www.w3.org/1999/xlink" x="0px" y="0px"
	 viewBox="0 0 512 512" style="enable-background:new 0 0 512 512;" xml:space="preserve">
<path style="fill:#F2D59F;" d="M256,56.414c-118.838,0-166.576,52.82-166.576,52.82s100.942,74.263,88.367,108.678
	c-19.298,52.817-167.591-29.963-167.591,44.691c0,110.228,110.048,192.984,245.801,192.984S501.801,366.228,501.801,256
	S391.752,56.414,256,56.414z M144.718,329.073c-7.769,16.803-30.576,22.791-50.944,13.375c-20.367-9.416-30.58-30.671-22.813-47.473
	c7.769-16.803,30.576-22.791,50.944-13.375C142.273,291.016,152.485,312.27,144.718,329.073z"/>
<ellipse style="fill:#FF7124;" cx="281.396" cy="136.659" rx="46.723" ry="37.581"/>
<ellipse style="fill:#8ECAC1;" cx="404.296" cy="213.847" rx="46.723" ry="37.581"/>
<ellipse style="fill:#FFAA7C;" cx="374.841" cy="336.747" rx="46.723" ry="37.581"/>
<ellipse style="fill:#F7E6C5;" cx="237.713" cy="379.41" rx="46.723" ry="37.581"/>
<g>
	<path style="fill:#4D3D36;" d="M256,465.785c-68.43,0-132.374-20.347-180.055-57.293C26.971,370.543,0,318.731,0,262.602
		c0-13.636,4.238-24.29,12.596-31.667c18.302-16.155,50.389-12.137,84.362-7.883c32.014,4.008,65.117,8.152,71.254-8.642
		c2.694-7.373-5.57-26.03-36.844-56.282c-22.9-22.151-47.74-40.498-47.989-40.681c-2.321-1.709-3.812-4.321-4.101-7.189
		c-0.29-2.868,0.648-5.726,2.58-7.864c2.073-2.295,52.178-56.18,174.143-56.18c67.99,0,131.999,21.57,180.236,60.738
		C485.093,146.625,512,199.557,512,256s-26.907,109.375-75.764,149.047C387.999,444.215,323.99,465.785,256,465.785z
		 M53.382,239.728c-11.82,0-21.764,1.625-27.288,6.5c-3.832,3.383-5.695,8.739-5.695,16.374
		c0,102.496,103.488,182.785,235.602,182.785c129.911,0,235.602-84.958,235.602-189.387S385.911,66.613,256,66.613
		c-58.71,0-98.848,13.481-122.181,24.791c-12.961,6.282-22.311,12.605-28.351,17.282c9.684,7.629,25.033,20.238,39.943,34.646
		c35.055,33.876,48.78,59.415,41.961,78.079c-5.422,14.839-18.647,23.307-39.31,25.169c-15.919,1.434-35.094-0.966-53.638-3.287
		C80.667,241.57,65.961,239.728,53.382,239.728z M113.549,357.112c-8.071,0-16.306-1.825-24.055-5.407
		c-25.439-11.761-37.905-39.129-27.79-61.011c5.058-10.941,14.795-18.791,27.415-22.105c11.909-3.126,25.073-1.794,37.066,3.752
		c25.439,11.761,37.905,39.13,27.791,61.011l0,0c-5.058,10.942-14.794,18.791-27.414,22.105
		C122.345,356.564,117.971,357.112,113.549,357.112z M102.147,287.329c-2.686,0-5.324,0.328-7.848,0.991
		c-6.623,1.739-11.623,5.623-14.08,10.936c-5.395,11.671,2.605,26.894,17.834,33.935c7.707,3.564,15.99,4.463,23.327,2.538
		c6.623-1.739,11.623-5.622,14.08-10.935c5.395-11.671-2.605-26.895-17.834-33.936C112.572,288.52,107.268,287.329,102.147,287.329z
		"/>
	<path style="fill:#4D3D36;" d="M209.287,195.01c-3.407,0-6.736-1.706-8.668-4.811c-9.263-14.883-22.425-31.297-38.066-47.469
		c-3.915-4.049-3.807-10.506,0.242-14.422c4.049-3.915,10.505-3.808,14.422,0.242c16.628,17.193,30.709,34.783,40.72,50.871
		c2.976,4.782,1.513,11.072-3.27,14.048C212.99,194.511,211.127,195.01,209.287,195.01z M148.742,125.522
		c-2.416,0-4.841-0.853-6.785-2.588c-1.128-1.006-2.25-1.994-3.362-2.962c-4.25-3.697-4.698-10.139-1.002-14.389
		c3.696-4.25,10.138-4.699,14.389-1.002c1.175,1.022,2.359,2.065,3.551,3.128c4.204,3.749,4.572,10.196,0.824,14.4
		C154.343,124.37,151.548,125.522,148.742,125.522z"/>
	<path style="fill:#4D3D36;" d="M281.392,184.435c-31.386,0-56.922-21.435-56.922-47.78s25.535-47.78,56.922-47.78
		s56.923,21.434,56.923,47.78S312.78,184.435,281.392,184.435z M281.392,109.273c-20.138,0-36.523,12.283-36.523,27.382
		c0,15.099,16.384,27.382,36.523,27.382s36.524-12.283,36.524-27.382C317.916,121.556,301.532,109.273,281.392,109.273z"/>
	<path style="fill:#4D3D36;" d="M404.292,261.629c-31.386,0-56.922-21.435-56.922-47.78s25.535-47.78,56.922-47.78
		s56.923,21.435,56.923,47.78S435.68,261.629,404.292,261.629z M404.292,186.466c-20.138,0-36.523,12.283-36.523,27.382
		s16.384,27.382,36.523,27.382c20.139,0,36.524-12.283,36.524-27.382S424.433,186.466,404.292,186.466z"/>
	<path style="fill:#4D3D36;" d="M374.838,384.529c-31.386,0-56.922-21.435-56.922-47.78s25.535-47.78,56.922-47.78
		s56.922,21.435,56.922,47.78S406.224,384.529,374.838,384.529z M374.838,309.366c-20.138,0-36.523,12.283-36.523,27.382
		c0,15.099,16.384,27.382,36.523,27.382s36.523-12.283,36.523-27.382C411.361,321.649,394.976,309.366,374.838,309.366z"/>
	<path style="fill:#4D3D36;" d="M237.717,427.189c-31.386,0-56.922-21.435-56.922-47.78s25.535-47.78,56.922-47.78
		s56.923,21.435,56.923,47.78S269.105,427.189,237.717,427.189z M237.717,352.027c-20.139,0-36.523,12.283-36.523,27.382
		s16.384,27.382,36.523,27.382s36.524-12.283,36.524-27.382S257.856,352.027,237.717,352.027z"/>
</g>
<g>
</g>
<g>
</g>
<g>
</g>
<g>
</g>
<g>
</g>
<g>
</g>
<g>
</g>
<g>
</g>
<g>
</g>
<g>
</g>
<g>
</g>
<g>
</g>
<g>
</g>
<g>
</g>
<g>
</g>
</svg>
