<svg width="531" height="428" viewBox="0 0 531 428" fill="none" xmlns="http://www.w3.org/2000/svg">
<path d="M429.874 314.711C474.9 306.715 506.724 267.485 501.499 224.444C498.715 201.645 487.434 181.403 458.41 175.59C381.413 160.103 90.7627 101.803 33.6582 202.818C-10.8632 281.539 15.6706 336.044 57.0177 370.16C98.3647 404.277 183.989 397.193 254.849 373.841C307.542 356.432 346.724 329.497 429.874 314.711Z" fill="#F58176"/>
<path d="M268.885 379.029C413.647 379.029 531 370.352 531 359.65C531 348.947 413.647 340.271 268.885 340.271C124.124 340.271 6.771 348.947 6.771 359.65C6.771 370.352 124.124 379.029 268.885 379.029Z" fill="#203A74" fill-opacity="0.5"/>
<path opacity="0.8" d="M400.644 90.5924C417.852 90.5924 431.801 76.6375 431.801 59.4233C431.801 42.209 417.852 28.2542 400.644 28.2542C383.437 28.2542 369.487 42.209 369.487 59.4233C369.487 76.6375 383.437 90.5924 400.644 90.5924Z" fill="#FFD200"/>
<path opacity="0.3" d="M398.873 118.847C431.679 118.847 458.273 92.2418 458.273 59.4233C458.273 26.6047 431.679 0 398.873 0C366.067 0 339.473 26.6047 339.473 59.4233C339.473 92.2418 366.067 118.847 398.873 118.847Z" fill="#FFD200"/>
<path d="M252.754 358.754C298.757 358.754 336.05 321.446 336.05 275.425C336.05 229.403 298.757 192.095 252.754 192.095C206.751 192.095 169.458 229.403 169.458 275.425C169.458 321.446 206.751 358.754 252.754 358.754Z" fill="#FFF2B3"/>
<path d="M252.753 327.878C281.711 327.878 305.186 304.394 305.186 275.425C305.186 246.455 281.711 222.971 252.753 222.971C223.796 222.971 200.321 246.455 200.321 275.425C200.321 304.394 223.796 327.878 252.753 327.878Z" fill="white"/>
<path d="M152.186 295.308C157.704 295.308 159.69 297.295 159.69 302.799V312.293C159.69 317.814 158.062 319.801 152.186 319.801H136.966V348.706C136.966 354.211 134.98 356.197 129.461 356.197H118.653C113.15 356.197 111.164 354.211 111.164 348.706V319.801H38.3839C32.8818 319.801 30.8959 317.814 30.8959 312.293V304.346C30.7479 301.129 31.6632 297.953 33.5004 295.308L106.753 204.39C107.98 202.742 109.577 201.404 111.414 200.485C113.252 199.566 115.279 199.091 117.334 199.098H129.543C135.061 199.098 137.047 200.645 137.047 206.605V295.308H152.186ZM111.164 236.162L63.2898 295.308H111.164V236.162Z" fill="#FFF2B3"/>
<path d="M467.189 295.308C472.707 295.308 474.693 297.295 474.693 302.799V312.293C474.693 317.814 473.147 319.801 467.189 319.801H451.968V348.706C451.968 354.211 449.982 356.197 444.464 356.197H433.655C428.153 356.197 426.167 354.211 426.167 348.706V319.801H353.37C347.868 319.801 345.882 317.814 345.882 312.293V304.346C345.744 301.126 346.671 297.949 348.519 295.308L421.772 204.39C422.999 202.742 424.596 201.404 426.433 200.485C428.271 199.566 430.298 199.091 432.353 199.098H444.48C449.999 199.098 451.985 200.645 451.985 206.605V295.308H467.189ZM426.167 236.162L378.292 295.308H426.167V236.162Z" fill="#FFF2B3"/>
<path opacity="0.58" d="M434.518 181.347C434.518 181.347 420.665 177.569 417.654 164.655C417.654 164.655 439.125 160.324 439.744 182.487L434.518 181.347Z" fill="#BADD70"/>
<path opacity="0.73" d="M436.227 179.979C436.227 179.979 426.541 164.655 435.055 150.341C435.055 150.341 451.333 160.715 444.138 180.012L436.227 179.979Z" fill="#9CB74E"/>
<path d="M438.718 179.996C438.718 179.996 443.829 163.809 459.31 160.747C459.31 160.747 462.207 171.251 449.282 180.028L438.718 179.996Z" fill="#607E2E"/>
<path d="M428.674 179.621L431.474 198.853L449.169 198.935L451.773 179.719L428.674 179.621Z" fill="#C7E2F2"/>
<path d="M490.905 116.56C490.905 113.641 489.746 110.841 487.682 108.776C485.619 106.712 482.82 105.552 479.901 105.552C479.307 105.551 478.713 105.601 478.127 105.698C476.863 103.341 474.986 101.37 472.693 99.9936C470.4 98.6174 467.778 97.8876 465.104 97.8818H464.567C465.213 95.2849 465.259 92.5751 464.702 89.9579C464.144 87.3406 462.999 84.8847 461.351 82.7764C459.704 80.6682 457.598 78.963 455.194 77.7903C452.789 76.6175 450.15 76.0081 447.475 76.0081C444.8 76.0081 442.16 76.6175 439.756 77.7903C437.351 78.963 435.246 80.6682 433.598 82.7764C431.951 84.8847 430.805 87.3406 430.248 89.9579C429.691 92.5751 429.737 95.2849 430.382 97.8818H429.845C427.855 97.8158 425.873 98.151 424.015 98.8672C422.157 99.5835 420.462 100.666 419.031 102.051C417.6 103.436 416.463 105.095 415.685 106.928C414.908 108.762 414.508 110.734 414.508 112.725C414.508 114.717 414.908 116.689 415.685 118.522C416.463 120.356 417.6 122.015 419.031 123.4C420.462 124.784 422.157 125.867 424.015 126.583C425.873 127.3 427.855 127.635 429.845 127.569H481.334V127.471C483.979 127.12 486.408 125.821 488.168 123.814C489.928 121.808 490.901 119.23 490.905 116.56Z" fill="#E6E6E6"/>
<path d="M65.5686 215.513C65.5686 214.273 65.3244 213.044 64.85 211.898C64.3755 210.753 63.68 209.711 62.8033 208.834C61.9266 207.957 60.8858 207.261 59.7403 206.787C58.5948 206.312 57.3671 206.068 56.1272 206.068C55.6202 206.077 55.1145 206.121 54.6133 206.198C53.5238 204.172 51.9052 202.479 49.9301 201.301C47.955 200.122 45.6973 199.501 43.3975 199.505H42.9417C43.5018 197.276 43.5463 194.949 43.0719 192.7C42.5975 190.451 41.6167 188.341 40.2041 186.528C38.7914 184.716 36.9842 183.25 34.9199 182.241C32.8555 181.233 30.5885 180.708 28.2912 180.708C25.9938 180.708 23.7268 181.233 21.6624 182.241C19.5981 183.25 17.7909 184.716 16.3783 186.528C14.9656 188.341 13.9848 190.451 13.5104 192.7C13.036 194.949 13.0806 197.276 13.6406 199.505H13.1848C11.4759 199.444 9.77222 199.728 8.1754 200.34C6.57859 200.952 5.1214 201.879 3.89082 203.067C2.66024 204.255 1.6815 205.679 1.01301 207.253C0.344528 208.828 0 210.521 0 212.232C0 213.942 0.344528 215.635 1.01301 217.21C1.6815 218.785 2.66024 220.208 3.89082 221.396C5.1214 222.584 6.57859 223.511 8.1754 224.123C9.77222 224.735 11.4759 225.019 13.1848 224.958H57.3481V224.877C59.6196 224.577 61.7051 223.462 63.2171 221.74C64.7291 220.018 65.5647 217.805 65.5686 215.513Z" fill="#E6E6E6"/>
<path d="M269.616 258.627C266.251 266.09 263.282 275.801 264.292 284.01C264.893 288.926 270.169 300.62 266.071 304.285C259.857 309.85 245.05 308.168 237.875 306.028C234.269 304.935 234.726 305.511 234.99 302.627C235.327 298.889 238.464 294.058 239.882 290.488C242.286 284.335 246.865 277.388 246.24 270.994C245.35 261.884 242.226 252.425 240.231 243.459C239.149 238.544 238.163 233.616 237.154 228.688C236.361 224.903 235.676 225.083 238.656 223.388C242.021 221.489 247.358 222.451 250.302 219.686C253.607 216.598 252.429 210.721 251.155 207.091L258.367 206.911C257.706 217.018 265.494 219.025 268.775 227.006C270.746 231.813 272.993 236.993 273.666 242.125C274.52 248.183 272.068 253.158 269.616 258.627Z" fill="#FFCDAB"/>
<path d="M235.05 301.773C245.51 298.923 256.5 298.614 267.104 300.872C266.599 296 266.102 291.137 265.614 286.281L245.639 293.216C239.269 295.427 237.37 295.475 235.05 301.773Z" fill="#FFAE81"/>
<path d="M256.095 300.283C256.167 300.92 253.764 301.184 253.692 300.547C253.619 299.91 256.023 299.646 256.095 300.283Z" fill="#FFAE81"/>
<path d="M258.439 206.91C259.172 209.122 259.941 210.396 259.448 212.282C259.04 213.857 256.444 215.888 255.747 217.811C253.619 223.472 254.965 229.385 260.013 233.123C253.095 231.69 246.906 227.859 242.538 222.306C251.228 219.998 254.364 216.104 251.167 207.03L258.439 206.91Z" fill="#FFAE81"/>
<path d="M257.465 422.512C257.423 422.514 257.381 422.505 257.343 422.486C257.305 422.467 257.273 422.439 257.249 422.404C257.231 422.378 257.219 422.348 257.213 422.316C257.207 422.285 257.207 422.252 257.214 422.221C257.221 422.189 257.233 422.16 257.252 422.133C257.27 422.107 257.294 422.085 257.321 422.068C257.874 421.718 258.54 421.589 259.184 421.707C259.215 421.711 259.245 421.722 259.272 421.739C259.299 421.755 259.323 421.777 259.341 421.803C259.359 421.829 259.371 421.859 259.377 421.89C259.383 421.921 259.383 421.953 259.376 421.984C259.362 422.046 259.324 422.101 259.27 422.137C259.216 422.173 259.151 422.187 259.088 422.176C258.571 422.092 258.041 422.199 257.597 422.476C257.558 422.501 257.512 422.514 257.465 422.512Z" fill="white"/>
<path d="M266.936 425.865C266.904 425.86 266.874 425.847 266.847 425.83C266.82 425.812 266.796 425.789 266.778 425.762C266.76 425.735 266.748 425.705 266.742 425.673C266.736 425.641 266.737 425.608 266.744 425.577C266.834 425.074 266.722 424.555 266.431 424.135C266.146 423.722 265.718 423.431 265.229 423.317C265.167 423.306 265.113 423.27 265.077 423.218C265.041 423.167 265.027 423.103 265.037 423.041C265.052 422.978 265.089 422.923 265.143 422.887C265.197 422.852 265.262 422.838 265.326 422.849C265.643 422.905 265.946 423.024 266.217 423.199C266.487 423.375 266.719 423.603 266.9 423.87C267.085 424.128 267.214 424.421 267.28 424.732C267.346 425.042 267.348 425.362 267.285 425.673C267.281 425.712 267.268 425.75 267.246 425.783C267.225 425.815 267.196 425.843 267.161 425.862C267.127 425.881 267.088 425.891 267.049 425.891C267.01 425.892 266.971 425.883 266.936 425.865Z" fill="white"/>
<path d="M266.948 421.719H266.852C266.821 421.708 266.794 421.692 266.77 421.67C266.746 421.649 266.727 421.622 266.714 421.593C266.7 421.564 266.693 421.533 266.692 421.501C266.69 421.469 266.696 421.437 266.707 421.407C271.995 408.186 276.947 394.593 281.43 381.06C281.452 380.999 281.497 380.948 281.555 380.919C281.613 380.89 281.68 380.885 281.743 380.904C281.774 380.913 281.803 380.929 281.828 380.95C281.853 380.971 281.873 380.997 281.888 381.026C281.903 381.056 281.911 381.088 281.913 381.12C281.915 381.153 281.91 381.186 281.899 381.216C277.428 394.749 272.464 408.33 267.176 421.587C267.155 421.629 267.122 421.664 267.082 421.687C267.041 421.711 266.994 421.722 266.948 421.719Z" fill="white"/>
<path d="M236.553 427.26C236.486 427.259 236.421 427.234 236.372 427.187C236.328 427.141 236.303 427.078 236.303 427.013C236.303 426.948 236.328 426.886 236.372 426.839C236.654 426.622 236.857 426.319 236.948 425.975C237.039 425.632 237.014 425.268 236.877 424.94C236.703 424.533 236.413 424.186 236.043 423.943C235.674 423.699 235.241 423.569 234.798 423.57C234.734 423.57 234.673 423.545 234.628 423.499C234.583 423.454 234.558 423.393 234.558 423.33C234.558 423.266 234.583 423.205 234.628 423.16C234.673 423.114 234.734 423.089 234.798 423.089C235.356 423.087 235.9 423.255 236.36 423.571C236.82 423.886 237.172 424.335 237.37 424.856C237.533 425.272 237.559 425.73 237.445 426.162C237.33 426.594 237.081 426.979 236.733 427.26C236.705 427.272 236.674 427.278 236.643 427.278C236.612 427.278 236.581 427.272 236.553 427.26Z" fill="white"/>
<path d="M231.036 423.654H228.02C227.956 423.654 227.895 423.628 227.85 423.583C227.805 423.538 227.779 423.477 227.779 423.413C227.779 423.35 227.805 423.289 227.85 423.243C227.895 423.198 227.956 423.173 228.02 423.173H231.036C231.1 423.173 231.161 423.198 231.206 423.243C231.251 423.289 231.277 423.35 231.277 423.413C231.277 423.477 231.251 423.538 231.206 423.583C231.161 423.628 231.1 423.654 231.036 423.654Z" fill="white"/>
<path d="M244.581 314.561C240.759 314.777 232.13 313.672 233.692 308.924C236.93 311.593 241.085 312.888 245.266 312.53L244.581 314.561Z" fill="#A8302D"/>
<path d="M243.56 314.874C243.267 314.87 242.974 314.85 242.682 314.814H242.202C242.17 314.814 242.138 314.807 242.108 314.794C242.079 314.781 242.053 314.762 242.031 314.738C242.01 314.715 241.993 314.687 241.983 314.656C241.973 314.625 241.97 314.593 241.973 314.561C241.982 314.498 242.014 314.439 242.063 314.397C242.111 314.355 242.174 314.332 242.238 314.333H242.731C243.932 314.453 244.389 314.489 244.738 313.444C244.747 313.412 244.763 313.383 244.784 313.358C244.805 313.333 244.831 313.313 244.86 313.298C244.89 313.283 244.921 313.275 244.954 313.273C244.987 313.271 245.019 313.276 245.05 313.287C245.081 313.295 245.11 313.31 245.135 313.33C245.16 313.35 245.18 313.375 245.195 313.403C245.21 313.431 245.218 313.462 245.22 313.494C245.222 313.526 245.218 313.558 245.206 313.588C245.147 313.971 244.944 314.318 244.638 314.557C244.332 314.795 243.946 314.909 243.56 314.874Z" fill="white"/>
<path d="M243.837 312.807C242.955 312.806 242.074 312.734 241.204 312.59C241.173 312.586 241.142 312.575 241.115 312.559C241.087 312.542 241.063 312.521 241.044 312.495C241.025 312.469 241.011 312.44 241.004 312.409C240.996 312.378 240.995 312.345 241 312.314C241.015 312.251 241.052 312.196 241.106 312.16C241.16 312.125 241.225 312.111 241.289 312.122C242.611 312.34 243.957 312.384 245.291 312.254C245.354 312.25 245.416 312.27 245.465 312.31C245.514 312.35 245.546 312.407 245.555 312.47C245.559 312.502 245.556 312.534 245.546 312.564C245.537 312.594 245.522 312.623 245.502 312.647C245.482 312.672 245.457 312.692 245.429 312.707C245.401 312.722 245.37 312.731 245.339 312.734C244.834 312.783 244.341 312.807 243.837 312.807Z" fill="white"/>
<path d="M233.344 310.367C233.311 310.368 233.279 310.363 233.248 310.352C233.217 310.34 233.19 310.323 233.166 310.301C233.142 310.278 233.123 310.251 233.111 310.221C233.098 310.191 233.091 310.159 233.091 310.126C233.091 309.249 233.272 308.816 233.608 308.708C233.945 308.6 234.377 308.984 234.654 309.345C234.677 309.366 234.696 309.392 234.708 309.421C234.721 309.45 234.728 309.482 234.728 309.513C234.728 309.545 234.721 309.576 234.708 309.605C234.696 309.634 234.677 309.66 234.654 309.682C234.607 309.726 234.544 309.751 234.479 309.751C234.415 309.751 234.352 309.726 234.305 309.682C233.969 309.237 233.812 309.213 233.8 309.213C233.788 309.213 233.656 309.357 233.644 310.186C233.637 310.218 233.624 310.249 233.605 310.275C233.585 310.302 233.561 310.325 233.533 310.341C233.505 310.358 233.473 310.369 233.441 310.374C233.408 310.378 233.375 310.376 233.344 310.367Z" fill="white"/>
<path d="M240.976 314.621C238.749 314.273 236.611 313.498 234.678 312.338C234.65 312.322 234.625 312.3 234.606 312.274C234.586 312.248 234.572 312.219 234.564 312.188C234.556 312.156 234.555 312.123 234.56 312.091C234.565 312.059 234.577 312.029 234.594 312.001C234.633 311.948 234.69 311.911 234.754 311.898C234.819 311.884 234.886 311.896 234.943 311.929C236.82 313.057 238.897 313.812 241.06 314.153C241.092 314.157 241.122 314.168 241.15 314.184C241.177 314.2 241.201 314.222 241.22 314.248C241.239 314.274 241.253 314.303 241.261 314.334C241.268 314.365 241.269 314.397 241.264 314.429C241.25 314.492 241.212 314.547 241.158 314.583C241.105 314.618 241.039 314.632 240.976 314.621Z" fill="white"/>
<path d="M227.31 422.452C227.252 422.453 227.196 422.433 227.152 422.395C227.108 422.358 227.079 422.305 227.07 422.248C226 414.724 225.183 407.081 224.666 399.521C224.665 399.489 224.669 399.458 224.68 399.428C224.691 399.398 224.707 399.371 224.728 399.347C224.749 399.324 224.775 399.305 224.804 399.291C224.832 399.278 224.863 399.27 224.895 399.269C225.051 399.269 225.159 399.365 225.159 399.497C225.712 407.033 226.529 414.664 227.563 422.176C227.567 422.241 227.547 422.304 227.507 422.355C227.467 422.406 227.41 422.441 227.346 422.452H227.31Z" fill="white"/>
<path d="M224.979 394.437C224.946 394.437 224.914 394.43 224.884 394.417C224.854 394.404 224.827 394.386 224.805 394.362C224.782 394.338 224.765 394.31 224.753 394.28C224.742 394.249 224.737 394.217 224.739 394.184C224.838 391.544 225.12 388.914 225.58 386.312C225.586 386.28 225.598 386.25 225.615 386.223C225.633 386.196 225.656 386.172 225.683 386.154C225.71 386.136 225.74 386.124 225.772 386.118C225.804 386.112 225.837 386.113 225.868 386.12C225.9 386.124 225.931 386.135 225.958 386.151C225.986 386.167 226.01 386.189 226.029 386.215C226.048 386.241 226.061 386.27 226.069 386.301C226.077 386.332 226.078 386.364 226.073 386.396C225.618 388.978 225.337 391.588 225.231 394.208C225.225 394.271 225.196 394.329 225.149 394.371C225.103 394.414 225.042 394.437 224.979 394.437Z" fill="white"/>
<path d="M267.477 302.855C256.564 309.922 242.791 306.328 234.762 296.918C236.89 295.319 236.529 295.355 238.596 295.8C241.396 296.401 244.87 299.55 247.67 300.607C254.1 303.095 260.831 303.888 267.104 300.487C267.224 301.292 267.345 302.074 267.477 302.855Z" fill="#A8302D"/>
<path d="M284.038 265.633C272.494 253.53 266.04 237.456 266.01 220.731C270.71 223.748 273.594 224.517 276.719 229.3C279.44 233.668 281.715 238.299 283.509 243.122C285.3 247.689 288.137 253.097 288.701 257.905C289.423 263.914 289.903 258.794 288.473 261.03C288.04 261.715 282.944 263.986 284.038 265.633Z" fill="#F3CD85"/>
<path d="M289.11 259.924C292.007 273.902 274.448 261.607 275.71 254.66C275.601 255.285 281.202 259.467 282.152 259.78C283.101 260.092 289.218 260.405 289.11 259.924Z" fill="#EBAB33"/>
<path d="M275.83 254.396C274.135 257.689 271.551 259.948 270.289 263.506C266.49 274.345 265.693 286.011 267.981 297.266C259.568 298.336 250.314 298.612 242.117 296.004C238.608 294.886 237.995 295.091 238.151 292.206C238.38 288.192 241.24 283.168 242.021 279.094C245.531 260.79 238.139 241.199 234.81 223.219C237.49 222.775 244.257 220.395 247.009 221.128C249.485 221.789 251.131 226.14 253.018 228.195C255.362 230.683 260.229 235.406 263.727 232.197C266.131 229.986 265.289 223.652 264.929 221.056C274.327 221.921 275.024 228.171 274.363 235.779C274.075 239.072 273.883 238.687 275.565 241.788C276.656 243.701 277.251 245.857 277.297 248.058C277.344 250.26 276.839 252.439 275.83 254.396Z" fill="#F3CD85"/>
<path d="M243.896 290.247C242.093 295.055 242.454 295.872 237.394 294.886C241.547 284.774 243.481 273.889 243.067 262.965C242.757 257.595 241.789 252.282 240.182 247.148C239.69 245.538 237.154 239.937 241.769 241.488C245.603 242.786 242.274 248.11 242.238 250.838C242.238 255.646 245.41 256.848 247.297 260.766C249.184 264.684 247.814 269.395 247.297 273.457C246.54 279.166 245.951 284.899 243.896 290.247Z" fill="#EBAB33"/>
<path d="M262.249 278.349C263.186 271.222 267.813 265.128 271.948 259.431C266.823 271.351 265.456 284.55 268.03 297.266C264.075 291.846 261.407 285.079 262.249 278.349Z" fill="#EBAB33"/>
<path d="M273.534 238.868C273.49 238.879 273.445 238.879 273.402 238.868C273.346 238.837 273.305 238.786 273.287 238.726C273.269 238.665 273.276 238.599 273.306 238.543C274.502 236.522 275.149 234.222 275.18 231.873C275.212 229.524 274.628 227.208 273.486 225.155C273.469 225.127 273.459 225.097 273.454 225.065C273.45 225.034 273.453 225.002 273.462 224.971C273.471 224.941 273.486 224.912 273.507 224.888C273.528 224.864 273.553 224.844 273.582 224.83C273.64 224.8 273.707 224.793 273.77 224.81C273.832 224.828 273.886 224.87 273.918 224.926C275.103 227.05 275.711 229.446 275.682 231.878C275.652 234.309 274.986 236.69 273.75 238.784C273.723 238.813 273.689 238.836 273.652 238.851C273.614 238.865 273.574 238.871 273.534 238.868Z" fill="#FFE5A1"/>
<path d="M267.189 277.784C267.156 277.782 267.124 277.774 267.094 277.76C267.065 277.746 267.039 277.726 267.017 277.701C266.996 277.676 266.98 277.647 266.97 277.616C266.96 277.585 266.957 277.552 266.96 277.519C267.465 271.606 269.256 262.905 272.657 257.821C276.263 252.437 279.099 248.206 275.193 241.404C275.176 241.375 275.165 241.344 275.161 241.312C275.157 241.279 275.159 241.246 275.168 241.214C275.177 241.183 275.193 241.154 275.213 241.128C275.234 241.103 275.26 241.082 275.289 241.067C275.347 241.039 275.414 241.034 275.476 241.051C275.538 241.069 275.591 241.109 275.626 241.163C279.676 248.206 276.623 252.785 273.078 258.085C269.737 263.097 267.958 271.702 267.453 277.556C267.447 277.62 267.416 277.68 267.367 277.723C267.317 277.765 267.254 277.787 267.189 277.784Z" fill="#E9A42F"/>
<path d="M257.033 231.933C256.982 231.948 256.928 231.948 256.877 231.933C253.118 229.028 249.99 225.389 247.682 221.237C247.662 221.179 247.664 221.116 247.687 221.06C247.709 221.003 247.751 220.957 247.806 220.929C247.86 220.901 247.922 220.894 247.981 220.909C248.04 220.923 248.092 220.959 248.127 221.008C250.397 225.107 253.481 228.698 257.189 231.561C257.233 231.606 257.258 231.666 257.258 231.729C257.258 231.792 257.233 231.852 257.189 231.897C257.141 231.923 257.087 231.936 257.033 231.933Z" fill="#FFE5A1"/>
<path d="M261.023 233.579C260.694 233.577 260.367 233.532 260.05 233.447C260.018 233.442 259.988 233.429 259.961 233.412C259.935 233.394 259.912 233.37 259.895 233.343C259.878 233.316 259.867 233.285 259.863 233.254C259.858 233.222 259.86 233.189 259.869 233.159C259.878 233.128 259.892 233.099 259.912 233.073C259.931 233.048 259.956 233.027 259.984 233.011C260.012 232.995 260.043 232.986 260.075 232.982C260.107 232.978 260.139 232.981 260.17 232.99C261.051 233.208 261.982 233.074 262.766 232.618C263.16 232.384 263.502 232.072 263.773 231.703C264.043 231.333 264.236 230.913 264.34 230.466C264.359 230.407 264.398 230.356 264.452 230.324C264.505 230.292 264.569 230.281 264.63 230.293C264.691 230.304 264.746 230.339 264.783 230.389C264.821 230.438 264.839 230.5 264.833 230.563C264.708 231.063 264.484 231.534 264.174 231.947C263.865 232.359 263.476 232.706 263.03 232.966C262.428 233.346 261.735 233.557 261.023 233.579Z" fill="#FFE5A1"/>
<path d="M265.145 228.772C265.112 228.771 265.08 228.763 265.051 228.748C265.022 228.734 264.995 228.714 264.974 228.689C264.953 228.664 264.936 228.635 264.927 228.604C264.917 228.573 264.913 228.54 264.917 228.508C265.169 225.95 265.169 223.374 264.917 220.816V220.479L268.426 221.272C268.489 221.287 268.544 221.325 268.58 221.378C268.615 221.432 268.629 221.497 268.619 221.561C268.602 221.624 268.561 221.678 268.505 221.712C268.449 221.745 268.382 221.756 268.318 221.741L265.482 221.104C265.71 223.583 265.71 226.077 265.482 228.556C265.481 228.595 265.471 228.634 265.451 228.669C265.432 228.703 265.405 228.733 265.371 228.754C265.338 228.775 265.3 228.788 265.261 228.791C265.221 228.795 265.181 228.788 265.145 228.772Z" fill="#FFE5A1"/>
<path d="M252.754 298.047C252.693 298.048 252.634 298.026 252.587 297.987C252.541 297.947 252.51 297.892 252.502 297.831C252.498 297.799 252.502 297.766 252.512 297.734C252.521 297.703 252.538 297.674 252.559 297.65C252.58 297.625 252.606 297.605 252.636 297.591C252.665 297.576 252.697 297.568 252.73 297.567C257.781 297.122 262.852 296.941 267.922 297.026C267.228 292.877 266.827 288.684 266.72 284.478C266.72 284.415 266.745 284.354 266.79 284.308C266.835 284.263 266.896 284.238 266.96 284.238C267.128 284.238 267.225 284.334 267.225 284.466C267.35 288.747 267.784 293.012 268.522 297.23V297.519H268.222C263.072 297.422 257.921 297.603 252.79 298.059L252.754 298.047Z" fill="#FFE5A1"/>
<path d="M246.192 297.158H246.12C243.235 296.401 240.291 295.74 237.346 295.175H237.07L239.846 287.339C239.857 287.309 239.874 287.281 239.895 287.257C239.917 287.233 239.943 287.214 239.972 287.201C240.001 287.187 240.033 287.18 240.065 287.179C240.097 287.178 240.129 287.183 240.159 287.195C240.189 287.203 240.218 287.217 240.243 287.237C240.268 287.257 240.289 287.282 240.303 287.31C240.318 287.338 240.327 287.37 240.329 287.401C240.331 287.433 240.326 287.465 240.315 287.495L237.731 294.814C240.579 295.367 243.452 296.016 246.252 296.749C246.283 296.756 246.312 296.77 246.338 296.788C246.363 296.806 246.385 296.829 246.402 296.856C246.419 296.883 246.43 296.913 246.435 296.944C246.44 296.975 246.439 297.007 246.432 297.038C246.408 297.078 246.372 297.111 246.329 297.133C246.287 297.154 246.239 297.163 246.192 297.158Z" fill="#FFE5A1"/>
<path d="M240.976 284.13H240.916C240.852 284.113 240.798 284.072 240.765 284.016C240.731 283.96 240.721 283.893 240.735 283.829C243.86 271.714 243.307 259.504 238.981 245.43C238.972 245.399 238.969 245.367 238.972 245.335C238.976 245.303 238.986 245.272 239.001 245.244C239.017 245.216 239.038 245.191 239.064 245.172C239.089 245.152 239.118 245.138 239.149 245.129C239.213 245.114 239.28 245.122 239.337 245.153C239.395 245.184 239.439 245.236 239.461 245.298C243.812 259.455 244.377 271.738 241.216 283.949C241.202 284.002 241.171 284.049 241.128 284.082C241.084 284.115 241.03 284.131 240.976 284.13Z" fill="#FFE5A1"/>
<path d="M264.508 197.632C266.491 201.49 267.345 211.658 261.732 212.848C257.189 213.821 251.66 208.04 249.87 204.783C247.911 201.25 246.384 194.651 250.206 191.563C255.098 187.669 262.321 193.365 264.508 197.632Z" fill="#FFCDAB"/>
<path d="M255.398 191.695C258.707 193.874 261.936 196.154 265.085 198.533C262.766 193.846 257.874 191.322 253.716 188.27C253.656 191.394 250.11 207.668 252.213 208.701C254.317 209.735 256.516 204.999 257.021 203.798C258.439 199.855 257.453 195.192 255.398 191.695Z" fill="#FFAE81"/>
<path d="M254.052 189.712L263.559 196.009C261.407 189.291 256.239 184.628 248.692 185.529C245.939 185.866 245.999 186.539 244.329 185.529C243.608 185.084 242.238 181.611 241.673 180.938C239.4 178.429 236.584 176.472 233.44 175.217C226.926 172.453 219.402 172.982 214.15 177.945C208.658 183.137 210.905 191.022 206.158 196.682C201.41 202.343 192.529 202.055 187 207.091C184.822 209.076 183.249 211.637 182.464 214.479C181.68 217.32 181.715 220.325 182.565 223.147C184.644 230.082 191.567 230.082 195.593 235.322C200.16 241.332 193.057 249.949 187.589 243.363C187.865 251.98 198.562 254.348 205.076 250.43C213.489 245.382 213.489 234.229 210.629 226.164C216.554 226.909 222.647 225.816 225.4 220.155C228.645 213.352 223.549 208.377 223.152 201.923C230.051 201.526 230.592 196.887 231.757 191.791C232.563 188.269 237.394 184.76 240.555 189.7C242.514 192.764 239.966 198.113 242.166 202.115C244.762 206.85 251.107 211.561 253.715 204.999C253.636 208.244 253.189 211.47 252.381 214.614C253.503 211.621 254.274 208.507 254.677 205.336C255.699 211.189 254.437 217.439 252.189 222.907C255.347 218.034 256.891 212.29 256.6 206.49C256.384 204.086 255.482 202.067 255.146 199.747C254.665 196.286 255.242 193.173 254.052 189.712Z" fill="#444E97"/>
<path d="M243.055 186.467C242.298 191.046 247.562 191.574 248.043 195.673C248.728 201.49 244.714 204.086 251.444 208.629C248.947 208.199 246.625 207.067 244.749 205.364C242.874 203.66 241.523 201.458 240.856 199.014C239.918 195.12 242.911 189.904 238.199 187.861C233.019 185.601 232.418 189.411 231.926 192.488C231.12 197.415 229.113 201.478 223.152 201.826C223.549 208.316 228.681 213.172 225.4 220.059C222.695 225.755 216.554 226.873 210.629 226.068C213.381 233.748 213.597 244.216 206.218 249.636C199.86 254.312 188.19 252.449 187.601 243.447C192.985 252.28 206.35 249.588 206.23 239.108C206.23 234.301 202.168 230.202 202.264 225.695C202.372 220.275 207.191 219.926 211.001 217.847C219.799 213.04 210.677 199.903 220.544 195.108C225.099 192.884 227.551 193.906 230.748 189.615C234.173 185.084 237.058 184.339 243.055 186.467Z" fill="#2C3261"/>
<path d="M246 187.103C243.596 189.411 236 194.711 238.332 187.452C240.315 181.286 248.968 184.231 246 187.103Z" fill="#EBAB33"/>
<path d="M256.876 302.446C262.3 302.591 267.702 301.714 272.801 299.862C271.599 301.761 271.455 305.042 270.517 306.412C269.58 307.783 271.395 306.809 268.727 307.674C266.9 308.263 253.655 303.312 254.304 302.723C254.953 302.134 256.251 302.422 256.876 302.446Z" fill="#BDE4DF"/>
<path d="M260.013 298.132C258.174 301.244 245.471 299.021 242.754 298.468C244.161 297.951 242.298 295.584 242.105 295.019C243.379 295.355 259.677 298.66 260.013 298.132Z" fill="#BDE4DF"/>
<path d="M203.922 259.251C200.052 263.121 213.08 276.222 215.556 278.481C218.284 281.053 226.048 290.163 229.257 286.99C231.661 284.587 229.522 283.878 227.779 281.594C224.917 277.624 222.362 273.441 220.135 269.083C218.813 266.679 217.287 261.607 214.919 259.912C213.489 258.999 205.208 257.965 203.922 259.251Z" fill="#FFCDAB"/>
<path d="M214.919 259.972L232.442 247.449C234.978 245.634 244.461 241.091 245.663 237.99C246.684 235.466 243.379 228.976 242.057 227.065C239.773 223.736 237.009 222.03 233.319 224.265C229.317 226.669 225.844 232.426 222.623 235.887C218.308 240.538 213.873 245.129 210.003 250.141C209.174 251.211 202.191 259.419 203.525 261.403C204.727 263.157 213.188 260.693 214.919 259.972Z" fill="#F3CD85"/>
<path d="M238.656 242.822C232.96 244.366 227.672 247.139 223.164 250.946C221.866 252.04 213.309 258.866 213.705 260.249C213.261 258.65 236.481 244.336 238.656 242.822Z" fill="#EBAB33"/>
<path d="M210.929 261.054C210.865 261.062 210.801 261.044 210.75 261.005C210.7 260.965 210.667 260.908 210.659 260.844C210.651 260.78 210.668 260.716 210.708 260.665C210.747 260.614 210.805 260.581 210.869 260.573L214.739 259.744L212.419 256.595C212.375 256.55 212.351 256.49 212.351 256.427C212.351 256.364 212.375 256.304 212.419 256.259C212.475 256.224 212.541 256.211 212.605 256.222C212.669 256.233 212.727 256.267 212.768 256.319L215.484 260.093L210.893 261.09L210.929 261.054Z" fill="#FFE5A1"/>
<path d="M215.136 260.201H215.028L212.528 259.143C212.468 259.117 212.421 259.068 212.396 259.008C212.371 258.947 212.371 258.879 212.395 258.819C212.41 258.789 212.43 258.762 212.454 258.739C212.479 258.717 212.508 258.7 212.539 258.689C212.57 258.678 212.603 258.673 212.636 258.674C212.67 258.676 212.702 258.684 212.732 258.698L215.232 259.756C215.262 259.767 215.29 259.783 215.313 259.805C215.337 259.827 215.355 259.853 215.368 259.883C215.38 259.912 215.386 259.944 215.386 259.976C215.385 260.008 215.378 260.04 215.364 260.069C215.342 260.11 215.309 260.144 215.269 260.167C215.228 260.19 215.182 260.202 215.136 260.201Z" fill="#FFE5A1"/>
<path d="M205.425 266.426C205.382 266.428 205.34 266.419 205.303 266.4C205.265 266.381 205.232 266.353 205.208 266.318C199.656 258.362 211.698 246.379 218.897 239.228C220.328 237.81 221.554 236.584 222.503 235.623C222.525 235.599 222.553 235.58 222.582 235.567C222.612 235.554 222.645 235.548 222.677 235.548C222.71 235.548 222.742 235.554 222.772 235.567C222.802 235.58 222.829 235.599 222.852 235.623C222.875 235.644 222.893 235.67 222.906 235.699C222.919 235.728 222.926 235.759 222.926 235.791C222.926 235.823 222.919 235.854 222.906 235.883C222.893 235.912 222.875 235.938 222.852 235.959C221.938 236.969 220.7 238.195 219.246 239.565C212.155 246.62 200.293 258.422 205.617 266.006C205.635 266.032 205.647 266.062 205.653 266.094C205.659 266.125 205.658 266.158 205.652 266.189C205.645 266.221 205.632 266.25 205.614 266.277C205.595 266.303 205.572 266.325 205.545 266.342C205.514 266.382 205.472 266.412 205.425 266.426Z" fill="#FFE5A1"/>
<path d="M215.015 260.129C214.976 260.13 214.937 260.122 214.902 260.105C214.866 260.088 214.835 260.063 214.811 260.033C214.766 259.986 214.741 259.923 214.741 259.858C214.741 259.793 214.766 259.731 214.811 259.684L240.723 241.127C240.778 241.093 240.845 241.079 240.909 241.091C240.973 241.102 241.031 241.136 241.072 241.187C241.095 241.209 241.114 241.235 241.126 241.264C241.139 241.293 241.146 241.324 241.146 241.356C241.146 241.387 241.139 241.419 241.126 241.448C241.114 241.477 241.095 241.503 241.072 241.524L215.16 260.081C215.116 260.107 215.067 260.124 215.015 260.129Z" fill="#FFE5A1"/>
<path d="M231.133 226.885H231.024C230.995 226.872 230.968 226.853 230.946 226.83C230.924 226.806 230.907 226.779 230.895 226.748C230.884 226.718 230.879 226.686 230.881 226.653C230.882 226.621 230.89 226.59 230.904 226.56C232.238 223.916 234.39 223.027 237.418 222.462C237.483 222.451 237.55 222.464 237.606 222.5C237.661 222.536 237.702 222.591 237.719 222.654C237.729 222.72 237.714 222.786 237.676 222.84C237.637 222.894 237.579 222.931 237.514 222.943C234.558 223.496 232.599 224.289 231.361 226.777C231.336 226.813 231.301 226.843 231.261 226.862C231.221 226.881 231.177 226.889 231.133 226.885Z" fill="#FFE5A1"/>
<path d="M228.873 290.704C231.89 294.406 246.793 297.723 240.327 289.201C237.058 284.887 222.948 283.433 228.873 290.704Z" fill="#FFCDAB"/>
<path d="M269.616 258.627C266.251 266.09 263.282 275.801 264.292 284.01C264.893 288.926 270.169 300.62 266.071 304.285C259.857 309.85 245.05 308.168 237.875 306.028C234.269 304.935 234.726 305.511 234.99 302.627C235.327 298.889 238.464 294.058 239.882 290.488C242.286 284.335 246.865 277.388 246.24 270.994C245.35 261.884 242.226 252.425 240.231 243.459C239.149 238.544 238.163 233.616 237.154 228.688C236.361 224.903 235.676 225.083 238.656 223.388C242.021 221.489 247.358 222.451 250.302 219.686C253.607 216.598 252.429 210.721 251.155 207.091L258.367 206.911C257.706 217.018 265.494 219.025 268.775 227.006C270.746 231.813 272.993 236.993 273.666 242.125C274.52 248.183 272.068 253.158 269.616 258.627Z" fill="#ECC19C"/>
<path d="M235.05 301.773C245.51 298.923 256.5 298.614 267.104 300.872C266.599 296 266.102 291.137 265.614 286.281L245.639 293.216C239.269 295.427 237.37 295.475 235.05 301.773Z" fill="#CEA28B"/>
<path d="M256.095 300.283C256.167 300.92 253.764 301.184 253.692 300.547C253.619 299.91 256.023 299.646 256.095 300.283Z" fill="#CEA28B"/>
<path d="M258.439 206.91C259.172 209.122 259.941 210.396 259.448 212.282C259.04 213.857 256.444 215.888 255.747 217.811C253.619 223.472 254.965 229.385 260.013 233.123C253.095 231.69 246.906 227.859 242.538 222.306C251.228 219.998 254.364 216.104 251.167 207.03L258.439 206.91Z" fill="#DFB28B"/>
<path d="M257.465 422.512C257.423 422.514 257.381 422.505 257.343 422.486C257.305 422.467 257.273 422.439 257.249 422.404C257.231 422.378 257.219 422.348 257.213 422.316C257.207 422.285 257.207 422.252 257.214 422.221C257.221 422.189 257.233 422.16 257.252 422.133C257.27 422.107 257.294 422.085 257.321 422.068C257.874 421.718 258.54 421.589 259.184 421.707C259.215 421.711 259.245 421.722 259.272 421.739C259.299 421.755 259.323 421.777 259.341 421.803C259.359 421.829 259.371 421.859 259.377 421.89C259.383 421.921 259.383 421.953 259.376 421.984C259.362 422.046 259.324 422.101 259.27 422.137C259.216 422.173 259.151 422.187 259.088 422.176C258.571 422.092 258.041 422.199 257.597 422.476C257.558 422.501 257.512 422.514 257.465 422.512Z" fill="white"/>
<path d="M266.936 425.865C266.904 425.86 266.874 425.847 266.847 425.83C266.82 425.812 266.796 425.789 266.778 425.762C266.76 425.735 266.748 425.705 266.742 425.673C266.736 425.641 266.737 425.608 266.744 425.577C266.834 425.074 266.722 424.555 266.431 424.135C266.146 423.722 265.718 423.431 265.229 423.317C265.167 423.306 265.113 423.27 265.077 423.218C265.041 423.167 265.027 423.103 265.037 423.041C265.052 422.978 265.089 422.923 265.143 422.887C265.197 422.852 265.262 422.838 265.326 422.849C265.643 422.905 265.946 423.024 266.217 423.199C266.487 423.375 266.719 423.603 266.9 423.87C267.085 424.128 267.214 424.421 267.28 424.732C267.346 425.042 267.348 425.362 267.285 425.673C267.281 425.712 267.268 425.75 267.246 425.783C267.225 425.815 267.196 425.843 267.161 425.862C267.127 425.881 267.088 425.891 267.049 425.891C267.01 425.892 266.971 425.883 266.936 425.865Z" fill="white"/>
<path d="M266.948 421.719H266.852C266.821 421.708 266.794 421.692 266.77 421.67C266.746 421.649 266.727 421.622 266.714 421.593C266.7 421.564 266.693 421.533 266.692 421.501C266.69 421.469 266.696 421.437 266.707 421.407C271.995 408.186 276.947 394.593 281.43 381.06C281.452 380.999 281.497 380.948 281.555 380.919C281.613 380.89 281.68 380.885 281.743 380.904C281.774 380.913 281.803 380.929 281.828 380.95C281.853 380.971 281.873 380.997 281.888 381.026C281.903 381.056 281.911 381.088 281.913 381.12C281.915 381.153 281.91 381.186 281.899 381.216C277.428 394.749 272.464 408.33 267.176 421.587C267.155 421.629 267.122 421.664 267.082 421.687C267.041 421.711 266.994 421.722 266.948 421.719Z" fill="white"/>
<path d="M236.553 427.26C236.486 427.259 236.421 427.234 236.372 427.187C236.328 427.141 236.303 427.078 236.303 427.013C236.303 426.948 236.328 426.886 236.372 426.839C236.654 426.622 236.857 426.319 236.948 425.975C237.039 425.632 237.014 425.268 236.877 424.94C236.703 424.533 236.413 424.186 236.043 423.943C235.674 423.699 235.241 423.569 234.798 423.57C234.734 423.57 234.673 423.545 234.628 423.499C234.583 423.454 234.558 423.393 234.558 423.33C234.558 423.266 234.583 423.205 234.628 423.16C234.673 423.114 234.734 423.089 234.798 423.089C235.356 423.087 235.9 423.255 236.36 423.571C236.82 423.886 237.172 424.335 237.37 424.856C237.533 425.272 237.559 425.73 237.445 426.162C237.33 426.594 237.081 426.979 236.733 427.26C236.705 427.272 236.674 427.278 236.643 427.278C236.612 427.278 236.581 427.272 236.553 427.26Z" fill="white"/>
<path d="M244.581 314.561C240.759 314.777 232.13 313.672 233.692 308.924C236.93 311.593 241.085 312.888 245.266 312.53L244.581 314.561Z" fill="#A8302D"/>
<path d="M243.56 314.874C243.267 314.87 242.974 314.85 242.682 314.814H242.202C242.17 314.814 242.138 314.807 242.108 314.794C242.079 314.781 242.053 314.762 242.031 314.738C242.01 314.715 241.993 314.687 241.983 314.656C241.973 314.625 241.97 314.593 241.973 314.561C241.982 314.498 242.014 314.439 242.063 314.397C242.111 314.355 242.174 314.332 242.238 314.333H242.731C243.932 314.453 244.389 314.489 244.738 313.444C244.747 313.412 244.763 313.383 244.784 313.358C244.805 313.333 244.831 313.313 244.86 313.298C244.89 313.283 244.921 313.275 244.954 313.273C244.987 313.271 245.019 313.276 245.05 313.287C245.081 313.295 245.11 313.31 245.135 313.33C245.16 313.35 245.18 313.375 245.195 313.403C245.21 313.431 245.218 313.462 245.22 313.494C245.222 313.526 245.218 313.558 245.206 313.588C245.147 313.971 244.944 314.318 244.638 314.557C244.332 314.795 243.946 314.909 243.56 314.874Z" fill="white"/>
<path d="M243.837 312.807C242.955 312.806 242.074 312.734 241.204 312.59C241.173 312.586 241.142 312.575 241.115 312.559C241.087 312.542 241.063 312.521 241.044 312.495C241.025 312.469 241.011 312.44 241.004 312.409C240.996 312.378 240.995 312.345 241 312.314C241.015 312.251 241.052 312.196 241.106 312.16C241.16 312.125 241.225 312.111 241.289 312.122C242.611 312.34 243.957 312.384 245.291 312.254C245.354 312.25 245.416 312.27 245.465 312.31C245.514 312.35 245.546 312.407 245.555 312.47C245.559 312.502 245.556 312.534 245.546 312.564C245.537 312.594 245.522 312.623 245.502 312.647C245.482 312.672 245.457 312.692 245.429 312.707C245.401 312.722 245.37 312.731 245.339 312.734C244.834 312.783 244.341 312.807 243.837 312.807Z" fill="white"/>
<path d="M233.344 310.367C233.311 310.368 233.279 310.363 233.248 310.352C233.217 310.34 233.19 310.323 233.166 310.301C233.142 310.278 233.123 310.251 233.111 310.221C233.098 310.191 233.091 310.159 233.091 310.126C233.091 309.249 233.272 308.816 233.608 308.708C233.945 308.6 234.377 308.984 234.654 309.345C234.677 309.366 234.696 309.392 234.708 309.421C234.721 309.45 234.728 309.482 234.728 309.513C234.728 309.545 234.721 309.576 234.708 309.605C234.696 309.634 234.677 309.66 234.654 309.682C234.607 309.726 234.544 309.751 234.479 309.751C234.415 309.751 234.352 309.726 234.305 309.682C233.969 309.237 233.812 309.213 233.8 309.213C233.788 309.213 233.656 309.357 233.644 310.186C233.637 310.218 233.624 310.249 233.605 310.275C233.585 310.302 233.561 310.325 233.533 310.341C233.505 310.358 233.473 310.369 233.441 310.374C233.408 310.378 233.375 310.376 233.344 310.367Z" fill="white"/>
<path d="M240.976 314.621C238.749 314.273 236.611 313.498 234.678 312.338C234.65 312.322 234.625 312.3 234.606 312.274C234.586 312.248 234.572 312.219 234.564 312.188C234.556 312.156 234.555 312.123 234.56 312.091C234.565 312.059 234.577 312.029 234.594 312.001C234.633 311.948 234.69 311.911 234.754 311.898C234.819 311.884 234.886 311.896 234.943 311.929C236.82 313.057 238.897 313.812 241.06 314.153C241.092 314.157 241.122 314.168 241.15 314.184C241.177 314.2 241.201 314.222 241.22 314.248C241.239 314.274 241.253 314.303 241.261 314.334C241.268 314.365 241.269 314.397 241.264 314.429C241.25 314.492 241.212 314.547 241.158 314.583C241.105 314.618 241.039 314.632 240.976 314.621Z" fill="white"/>
<path d="M227.31 422.452C227.252 422.453 227.196 422.433 227.152 422.395C227.108 422.358 227.079 422.305 227.07 422.248C226 414.724 225.183 407.081 224.666 399.521C224.665 399.489 224.669 399.458 224.68 399.428C224.691 399.398 224.707 399.371 224.728 399.347C224.749 399.324 224.775 399.305 224.804 399.291C224.832 399.278 224.863 399.27 224.895 399.269C225.051 399.269 225.159 399.365 225.159 399.497C225.712 407.033 226.529 414.664 227.563 422.176C227.567 422.241 227.547 422.304 227.507 422.355C227.467 422.406 227.41 422.441 227.346 422.452H227.31Z" fill="white"/>
<path d="M224.979 394.437C224.946 394.437 224.914 394.43 224.884 394.417C224.854 394.404 224.827 394.386 224.805 394.362C224.782 394.338 224.765 394.31 224.753 394.28C224.742 394.249 224.737 394.217 224.739 394.184C224.838 391.544 225.12 388.914 225.58 386.312C225.586 386.28 225.598 386.25 225.615 386.223C225.633 386.196 225.656 386.172 225.683 386.154C225.71 386.136 225.74 386.124 225.772 386.118C225.804 386.112 225.837 386.113 225.868 386.12C225.9 386.124 225.931 386.135 225.958 386.151C225.986 386.167 226.01 386.189 226.029 386.215C226.048 386.241 226.061 386.27 226.069 386.301C226.077 386.332 226.078 386.364 226.073 386.396C225.618 388.978 225.337 391.588 225.231 394.208C225.225 394.271 225.196 394.329 225.149 394.371C225.103 394.414 225.042 394.437 224.979 394.437Z" fill="white"/>
<path d="M267.477 302.855C256.564 309.922 242.791 306.328 234.762 296.918C236.89 295.319 236.529 295.355 238.596 295.8C241.396 296.401 244.87 299.55 247.67 300.607C254.1 303.095 260.831 303.888 267.104 300.487C267.224 301.292 267.345 302.074 267.477 302.855Z" fill="#A8302D"/>
<path d="M284.038 265.633C272.494 253.53 266.04 237.456 266.01 220.731C270.71 223.748 273.594 224.517 276.719 229.3C279.44 233.668 281.715 238.299 283.509 243.122C285.3 247.689 288.137 253.097 288.701 257.905C289.423 263.914 289.903 258.794 288.473 261.03C288.04 261.715 282.944 263.986 284.038 265.633Z" fill="#F3CD85"/>
<path d="M289.11 259.924C292.007 273.902 274.448 261.607 275.71 254.66C275.601 255.285 281.202 259.467 282.152 259.78C283.101 260.092 289.218 260.405 289.11 259.924Z" fill="#EBAB33"/>
<path d="M275.83 254.396C274.135 257.689 271.551 259.948 270.289 263.506C266.49 274.345 265.693 286.011 267.981 297.266C259.568 298.336 250.314 298.612 242.117 296.004C238.608 294.886 237.995 295.091 238.151 292.206C238.38 288.192 241.24 283.168 242.021 279.094C245.531 260.79 238.139 241.199 234.81 223.219C237.49 222.775 244.257 220.395 247.009 221.128C249.485 221.789 251.131 226.14 253.018 228.195C255.362 230.683 260.229 235.406 263.727 232.197C266.131 229.986 265.289 223.652 264.929 221.056C274.327 221.921 275.024 228.171 274.363 235.779C274.075 239.072 273.883 238.687 275.565 241.788C276.656 243.701 277.251 245.857 277.297 248.058C277.344 250.26 276.839 252.439 275.83 254.396Z" fill="#F3CD85"/>
<path d="M243.896 290.247C242.093 295.055 242.454 295.872 237.394 294.886C241.547 284.774 243.481 273.889 243.067 262.965C242.757 257.595 241.789 252.282 240.182 247.148C239.69 245.538 237.154 239.937 241.769 241.488C245.603 242.786 242.274 248.11 242.238 250.838C242.238 255.646 245.41 256.848 247.297 260.766C249.184 264.684 247.814 269.395 247.297 273.457C246.54 279.166 245.951 284.899 243.896 290.247Z" fill="#EBAB33"/>
<path d="M262.249 278.349C263.186 271.222 267.813 265.128 271.948 259.431C266.823 271.351 265.456 284.55 268.03 297.266C264.075 291.846 261.407 285.079 262.249 278.349Z" fill="#EBAB33"/>
<path d="M273.534 238.868C273.49 238.879 273.445 238.879 273.402 238.868C273.346 238.837 273.305 238.786 273.287 238.726C273.269 238.665 273.276 238.599 273.306 238.543C274.502 236.522 275.149 234.222 275.18 231.873C275.212 229.524 274.628 227.208 273.486 225.155C273.469 225.127 273.459 225.097 273.454 225.065C273.45 225.034 273.453 225.002 273.462 224.971C273.471 224.941 273.486 224.912 273.507 224.888C273.528 224.864 273.553 224.844 273.582 224.83C273.64 224.8 273.707 224.793 273.77 224.81C273.832 224.828 273.886 224.87 273.918 224.926C275.103 227.05 275.711 229.446 275.682 231.878C275.652 234.309 274.986 236.69 273.75 238.784C273.723 238.813 273.689 238.836 273.652 238.851C273.614 238.865 273.574 238.871 273.534 238.868Z" fill="#FFE5A1"/>
<path d="M267.189 277.784C267.156 277.782 267.124 277.774 267.094 277.76C267.065 277.746 267.039 277.726 267.017 277.701C266.996 277.676 266.98 277.647 266.97 277.616C266.96 277.585 266.957 277.552 266.96 277.519C267.465 271.606 269.256 262.905 272.657 257.821C276.263 252.437 279.099 248.206 275.193 241.404C275.176 241.375 275.165 241.344 275.161 241.312C275.157 241.279 275.159 241.246 275.168 241.214C275.177 241.183 275.193 241.154 275.213 241.128C275.234 241.103 275.26 241.082 275.289 241.067C275.347 241.039 275.414 241.034 275.476 241.051C275.538 241.069 275.591 241.109 275.626 241.163C279.676 248.206 276.623 252.785 273.078 258.085C269.737 263.097 267.958 271.702 267.453 277.556C267.447 277.62 267.416 277.68 267.367 277.723C267.317 277.765 267.254 277.787 267.189 277.784Z" fill="#E9A42F"/>
<path d="M257.033 231.933C256.982 231.948 256.928 231.948 256.877 231.933C253.118 229.028 249.99 225.389 247.682 221.237C247.662 221.179 247.664 221.116 247.687 221.06C247.709 221.003 247.751 220.957 247.806 220.929C247.86 220.901 247.922 220.894 247.981 220.909C248.04 220.923 248.092 220.959 248.127 221.008C250.397 225.107 253.481 228.698 257.189 231.561C257.233 231.606 257.258 231.666 257.258 231.729C257.258 231.792 257.233 231.852 257.189 231.897C257.141 231.923 257.087 231.936 257.033 231.933Z" fill="#FFE5A1"/>
<path d="M261.023 233.579C260.694 233.577 260.367 233.532 260.05 233.447C260.018 233.442 259.988 233.429 259.961 233.412C259.935 233.394 259.912 233.37 259.895 233.343C259.878 233.316 259.867 233.285 259.863 233.254C259.858 233.222 259.86 233.189 259.869 233.159C259.878 233.128 259.892 233.099 259.912 233.073C259.931 233.048 259.956 233.027 259.984 233.011C260.012 232.995 260.043 232.986 260.075 232.982C260.107 232.978 260.139 232.981 260.17 232.99C261.051 233.208 261.982 233.074 262.766 232.618C263.16 232.384 263.502 232.072 263.773 231.703C264.043 231.333 264.236 230.913 264.34 230.466C264.359 230.407 264.398 230.356 264.452 230.324C264.505 230.292 264.569 230.281 264.63 230.293C264.691 230.304 264.746 230.339 264.783 230.389C264.821 230.438 264.839 230.5 264.833 230.563C264.708 231.063 264.484 231.534 264.174 231.947C263.865 232.359 263.476 232.706 263.03 232.966C262.428 233.346 261.735 233.557 261.023 233.579Z" fill="#FFE5A1"/>
<path d="M265.145 228.772C265.112 228.771 265.08 228.763 265.051 228.748C265.022 228.734 264.995 228.714 264.974 228.689C264.953 228.664 264.936 228.635 264.927 228.604C264.917 228.573 264.913 228.54 264.917 228.508C265.169 225.95 265.169 223.374 264.917 220.816V220.479L268.426 221.272C268.489 221.287 268.544 221.325 268.58 221.378C268.615 221.432 268.629 221.497 268.619 221.561C268.602 221.624 268.561 221.678 268.505 221.712C268.449 221.745 268.382 221.756 268.318 221.741L265.482 221.104C265.71 223.583 265.71 226.077 265.482 228.556C265.481 228.595 265.471 228.634 265.451 228.669C265.432 228.703 265.405 228.733 265.371 228.754C265.338 228.775 265.3 228.788 265.261 228.791C265.221 228.795 265.181 228.788 265.145 228.772Z" fill="#FFE5A1"/>
<path d="M252.754 298.047C252.693 298.048 252.634 298.026 252.587 297.987C252.541 297.947 252.51 297.892 252.502 297.831C252.498 297.799 252.502 297.766 252.512 297.734C252.521 297.703 252.538 297.674 252.559 297.65C252.58 297.625 252.606 297.605 252.636 297.591C252.665 297.576 252.697 297.568 252.73 297.567C257.781 297.122 262.852 296.941 267.922 297.026C267.228 292.877 266.827 288.684 266.72 284.478C266.72 284.415 266.745 284.354 266.79 284.308C266.835 284.263 266.896 284.238 266.96 284.238C267.128 284.238 267.225 284.334 267.225 284.466C267.35 288.747 267.784 293.012 268.522 297.23V297.519H268.222C263.072 297.422 257.921 297.603 252.79 298.059L252.754 298.047Z" fill="#FFE5A1"/>
<path d="M246.192 297.158H246.12C243.235 296.401 240.291 295.74 237.346 295.175H237.07L239.846 287.339C239.857 287.309 239.874 287.281 239.895 287.257C239.917 287.233 239.943 287.214 239.972 287.201C240.001 287.187 240.033 287.18 240.065 287.179C240.097 287.178 240.129 287.183 240.159 287.195C240.189 287.203 240.218 287.217 240.243 287.237C240.268 287.257 240.289 287.282 240.303 287.31C240.318 287.338 240.327 287.37 240.329 287.401C240.331 287.433 240.326 287.465 240.315 287.495L237.731 294.814C240.579 295.367 243.452 296.016 246.252 296.749C246.283 296.756 246.312 296.77 246.338 296.788C246.363 296.806 246.385 296.829 246.402 296.856C246.419 296.883 246.43 296.913 246.435 296.944C246.44 296.975 246.439 297.007 246.432 297.038C246.408 297.078 246.372 297.111 246.329 297.133C246.287 297.154 246.239 297.163 246.192 297.158Z" fill="#FFE5A1"/>
<path d="M240.976 284.13H240.916C240.852 284.113 240.798 284.072 240.765 284.016C240.731 283.96 240.721 283.893 240.735 283.829C243.86 271.714 243.307 259.504 238.981 245.43C238.972 245.399 238.969 245.367 238.972 245.335C238.976 245.303 238.986 245.272 239.001 245.244C239.017 245.216 239.038 245.191 239.064 245.172C239.089 245.152 239.118 245.138 239.149 245.129C239.213 245.114 239.28 245.122 239.337 245.153C239.395 245.184 239.439 245.236 239.461 245.298C243.812 259.455 244.377 271.738 241.216 283.949C241.202 284.002 241.171 284.049 241.128 284.082C241.084 284.115 241.03 284.131 240.976 284.13Z" fill="#FFE5A1"/>
<path d="M264.508 197.632C266.491 201.49 267.345 211.658 261.732 212.848C257.189 213.821 251.66 208.04 249.87 204.783C247.911 201.25 246.384 194.651 250.206 191.563C255.098 187.669 262.321 193.365 264.508 197.632Z" fill="#ECC19C"/>
<path d="M255.398 191.695C258.707 193.874 261.936 196.154 265.085 198.533C262.766 193.846 257.874 191.322 253.716 188.27C253.656 191.394 250.11 207.668 252.213 208.701C254.317 209.735 256.516 204.999 257.021 203.798C258.439 199.855 257.453 195.192 255.398 191.695Z" fill="#DFB28B"/>
<path d="M254.052 189.712L263.559 196.009C261.407 189.291 256.239 184.628 248.692 185.529C245.939 185.866 245.999 186.539 244.329 185.529C243.608 185.084 242.238 181.611 241.673 180.938C239.4 178.429 236.584 176.472 233.44 175.217C226.926 172.453 219.402 172.982 214.15 177.945C208.658 183.137 210.905 191.022 206.158 196.682C201.41 202.343 192.529 202.055 187 207.091C184.822 209.076 183.249 211.637 182.464 214.479C181.68 217.32 181.715 220.325 182.565 223.147C184.644 230.082 191.567 230.082 195.593 235.322C200.16 241.332 193.057 249.949 187.589 243.363C187.865 251.98 198.562 254.348 205.076 250.43C213.489 245.382 213.489 234.229 210.629 226.164C216.554 226.909 222.647 225.816 225.4 220.155C228.645 213.352 223.549 208.377 223.152 201.923C230.051 201.526 230.592 196.887 231.757 191.791C232.563 188.269 237.394 184.76 240.555 189.7C242.514 192.764 239.966 198.113 242.166 202.115C244.762 206.85 251.107 211.561 253.715 204.999C253.636 208.244 253.189 211.47 252.381 214.614C253.503 211.621 254.274 208.507 254.677 205.336C255.699 211.189 254.437 217.439 252.189 222.907C255.347 218.034 256.891 212.29 256.6 206.49C256.384 204.086 255.482 202.067 255.146 199.747C254.665 196.286 255.242 193.173 254.052 189.712Z" fill="#444E97"/>
<path d="M243.055 186.467C242.298 191.046 247.562 191.574 248.043 195.673C248.728 201.49 244.714 204.086 251.444 208.629C248.947 208.199 246.625 207.067 244.749 205.364C242.874 203.66 241.523 201.458 240.856 199.014C239.918 195.12 242.911 189.904 238.199 187.861C233.019 185.601 232.418 189.411 231.926 192.488C231.12 197.415 229.113 201.478 223.152 201.826C223.549 208.316 228.681 213.172 225.4 220.059C222.695 225.755 216.554 226.873 210.629 226.068C213.381 233.748 213.597 244.216 206.218 249.636C199.86 254.312 188.19 252.449 187.601 243.447C192.985 252.28 206.35 249.588 206.23 239.108C206.23 234.301 202.168 230.202 202.264 225.695C202.372 220.275 207.191 219.926 211.001 217.847C219.799 213.04 210.677 199.903 220.544 195.108C225.099 192.884 227.551 193.906 230.748 189.615C234.173 185.084 237.058 184.339 243.055 186.467Z" fill="#2C3261"/>
<path d="M246 187.103C243.596 189.411 236 194.711 238.332 187.452C240.315 181.286 248.968 184.231 246 187.103Z" fill="#EBAB33"/>
<path d="M256.876 302.446C262.3 302.591 267.702 301.714 272.801 299.862C271.599 301.761 271.455 305.042 270.517 306.412C269.58 307.783 271.395 306.809 268.727 307.674C266.9 308.263 253.655 303.312 254.304 302.723C254.953 302.134 256.251 302.422 256.876 302.446Z" fill="#BDE4DF"/>
<path d="M203.922 259.251C200.052 263.121 213.08 276.222 215.556 278.481C218.284 281.053 226.048 290.163 229.257 286.99C231.661 284.587 229.522 283.878 227.779 281.594C224.917 277.624 222.362 273.441 220.135 269.083C218.813 266.679 217.287 261.607 214.919 259.912C213.489 258.999 205.208 257.965 203.922 259.251Z" fill="#ECC19C"/>
<path d="M214.919 259.972L232.442 247.449C234.978 245.634 244.461 241.091 245.663 237.99C246.684 235.466 243.379 228.976 242.057 227.065C239.773 223.736 237.009 222.03 233.319 224.265C229.317 226.669 225.844 232.426 222.623 235.887C218.308 240.538 213.873 245.129 210.003 250.141C209.174 251.211 202.191 259.419 203.525 261.403C204.727 263.157 213.188 260.693 214.919 259.972Z" fill="#F3CD85"/>
<path d="M238.656 242.822C232.96 244.366 227.672 247.139 223.164 250.946C221.866 252.04 213.309 258.866 213.705 260.249C213.261 258.65 236.481 244.336 238.656 242.822Z" fill="#EBAB33"/>
<path d="M210.929 261.054C210.865 261.062 210.801 261.044 210.75 261.005C210.7 260.965 210.667 260.908 210.659 260.844C210.651 260.78 210.668 260.716 210.708 260.665C210.747 260.614 210.805 260.581 210.869 260.573L214.739 259.744L212.419 256.595C212.375 256.55 212.351 256.49 212.351 256.427C212.351 256.364 212.375 256.304 212.419 256.259C212.475 256.224 212.541 256.211 212.605 256.222C212.669 256.233 212.727 256.267 212.768 256.319L215.484 260.093L210.893 261.09L210.929 261.054Z" fill="#FFE5A1"/>
<path d="M215.136 260.201H215.028L212.528 259.143C212.468 259.117 212.421 259.068 212.396 259.008C212.371 258.947 212.371 258.879 212.395 258.819C212.41 258.789 212.43 258.762 212.454 258.739C212.479 258.717 212.508 258.7 212.539 258.689C212.57 258.678 212.603 258.673 212.636 258.674C212.67 258.676 212.702 258.684 212.732 258.698L215.232 259.756C215.262 259.767 215.29 259.783 215.313 259.805C215.337 259.827 215.355 259.853 215.368 259.883C215.38 259.912 215.386 259.944 215.386 259.976C215.385 260.008 215.378 260.04 215.364 260.069C215.342 260.11 215.309 260.144 215.269 260.167C215.228 260.19 215.182 260.202 215.136 260.201Z" fill="#FFE5A1"/>
<path d="M205.425 266.426C205.382 266.428 205.34 266.419 205.303 266.4C205.265 266.381 205.232 266.353 205.208 266.318C199.656 258.362 211.698 246.379 218.897 239.228C220.328 237.81 221.554 236.584 222.503 235.623C222.525 235.599 222.553 235.58 222.582 235.567C222.612 235.554 222.645 235.548 222.677 235.548C222.71 235.548 222.742 235.554 222.772 235.567C222.802 235.58 222.829 235.599 222.852 235.623C222.875 235.644 222.893 235.67 222.906 235.699C222.919 235.728 222.926 235.759 222.926 235.791C222.926 235.823 222.919 235.854 222.906 235.883C222.893 235.912 222.875 235.938 222.852 235.959C221.938 236.969 220.7 238.195 219.246 239.565C212.155 246.62 200.293 258.422 205.617 266.006C205.635 266.032 205.647 266.062 205.653 266.094C205.659 266.125 205.658 266.158 205.652 266.189C205.645 266.221 205.632 266.25 205.614 266.277C205.595 266.303 205.572 266.325 205.545 266.342C205.514 266.382 205.472 266.412 205.425 266.426Z" fill="#FFE5A1"/>
<path d="M215.015 260.129C214.976 260.13 214.937 260.122 214.902 260.105C214.866 260.088 214.835 260.063 214.811 260.033C214.766 259.986 214.741 259.923 214.741 259.858C214.741 259.793 214.766 259.731 214.811 259.684L240.723 241.127C240.778 241.093 240.845 241.079 240.909 241.091C240.973 241.102 241.031 241.136 241.072 241.187C241.095 241.209 241.114 241.235 241.126 241.264C241.139 241.293 241.146 241.324 241.146 241.356C241.146 241.387 241.139 241.419 241.126 241.448C241.114 241.477 241.095 241.503 241.072 241.524L215.16 260.081C215.116 260.107 215.067 260.124 215.015 260.129Z" fill="#FFE5A1"/>
<path d="M231.133 226.885H231.024C230.995 226.872 230.968 226.853 230.946 226.83C230.924 226.806 230.907 226.779 230.895 226.748C230.884 226.718 230.879 226.686 230.881 226.653C230.882 226.621 230.89 226.59 230.904 226.56C232.238 223.916 234.39 223.027 237.418 222.462C237.483 222.451 237.55 222.464 237.606 222.5C237.661 222.536 237.702 222.591 237.719 222.654C237.729 222.72 237.714 222.786 237.676 222.84C237.637 222.894 237.579 222.931 237.514 222.943C234.558 223.496 232.599 224.289 231.361 226.777C231.336 226.813 231.301 226.843 231.261 226.862C231.221 226.881 231.177 226.889 231.133 226.885Z" fill="#FFE5A1"/>
<path d="M228.873 290.704C231.89 294.406 246.793 297.723 240.327 289.201C237.058 284.887 222.948 283.433 228.873 290.704Z" fill="#ECC19C"/>
<path d="M317.081 215.296C318.867 216.523 326.767 221.879 324.8 224.583C322.361 227.949 318.54 220.305 317.791 220.6C318.502 220.959 319.244 221.251 320.009 221.471C321.258 220.54 313.344 214.858 313.689 213.796C314.034 212.735 316.699 215.033 317.081 215.296Z" fill="#FFCDAB"/>
<path d="M301.669 246.24C307.742 241.779 313.053 236.365 317.396 230.208C319.202 227.726 321.12 221.899 325.115 223.541C318.278 238.464 309.105 254.563 294.715 263.026C291.91 264.706 282.437 270.127 285.244 263.095C287.9 256.349 296.041 250.199 301.669 246.24Z" fill="#FFCDAB"/>
<path d="M301.669 246.24C307.742 241.779 313.053 236.365 317.396 230.208C319.202 227.726 321.12 221.899 325.115 223.541C318.278 238.464 309.105 254.563 294.715 263.026C291.91 264.706 282.437 270.127 285.244 263.095C287.9 256.349 296.041 250.199 301.669 246.24Z" fill="#ECC19C"/>
<path d="M234.712 296.11C232.167 302.262 230.797 308.837 230.673 315.494C243.14 317.836 255.998 316.953 268.028 312.93C273.162 311.177 278.079 308.845 282.685 305.977L273.193 289.857C261.055 294.975 247.871 297.119 234.737 296.11H234.712Z" fill="#F25D4E"/>
<path d="M288.281 368.981L299.161 370.645C297.169 382.1 295.184 393.559 293.208 405.023C293.008 406.239 292.346 407.331 291.361 408.072C290.375 408.813 289.143 409.145 287.918 409C285.717 408.462 283.979 405.386 285.267 402.384C285.876 395.906 286.472 389.412 287.056 382.9C287.464 378.248 287.873 373.609 288.281 368.981Z" fill="#FFCBA9"/>
<path d="M285.605 403.373C285.855 403.373 285.943 402.009 286.931 400.734C288.506 398.658 291.42 398.108 294.197 398.083L296.185 390.154L285.605 388.828C285.055 400.259 285.23 403.335 285.605 403.373Z" fill="#FFAC80"/>
<path d="M310.067 318.208C310.052 319.038 309.878 319.857 309.554 320.622C308.679 322.585 306.678 323.823 304.239 324.586C301.263 325.408 298.184 325.795 295.097 325.736C292.771 325.736 290.72 325.611 289.432 325.499L288.307 325.386C272.049 323.51 256.804 310.742 256.804 310.742C255.891 309.967 254.366 308.641 252.565 306.84C279.315 304.752 298.836 305.59 302.588 307.44C303.926 308.103 308.278 311.392 309.191 313.693C309.772 315.128 310.069 316.661 310.067 318.208Z" fill="#FF7562"/>
<path d="M310.617 329.051C310.267 336.554 308.528 339.818 304.777 355.113C303.188 361.603 303.526 360.815 301.65 368.869C301.588 369.132 301.525 369.382 301.475 369.644C300.912 372.033 300.337 374.372 299.774 376.648C298.086 383.476 296.435 389.754 294.86 395.406L288.219 394.456L285.605 394.081C285.53 387.715 285.418 360.19 290.47 338.542C291.391 334.066 292.94 329.742 295.072 325.699C296.709 322.77 298.881 320.174 301.475 318.045C301.808 317.77 302.146 317.508 302.488 317.258C304.536 315.746 306.783 314.525 309.166 313.631C309.529 315.219 309.816 316.745 310.042 318.17C310.599 321.769 310.792 325.414 310.617 329.051Z" fill="#FF7562"/>
<path d="M298.361 341.969C298.63 344.895 299.628 347.707 301.262 350.148C302.255 351.719 303.435 353.164 304.777 354.45C303.044 361.639 301.72 368.921 300.812 376.26L300.612 376.335L290.895 382.213C290.257 382.984 289.804 383.891 289.57 384.864C289.412 385.737 289.412 386.63 289.57 387.503C290.22 391.055 294.572 395.119 294.86 395.444C292.638 395.446 290.421 395.224 288.244 394.781C287.306 394.581 286.431 394.356 285.605 394.118C285.53 387.753 285.418 360.228 290.47 338.58C291.391 334.103 292.94 329.779 295.072 325.737C292.746 325.737 290.695 325.612 289.407 325.499L288.282 325.387C275.851 324.023 255.929 315.857 256.779 310.742C256.787 310.648 256.808 310.555 256.842 310.467C279.352 306.478 296.973 308.154 301.475 315.469C301.846 316.072 302.184 316.694 302.488 317.333C303.605 319.602 304.195 322.094 304.214 324.624C304.207 325.1 304.173 325.576 304.114 326.049C303.521 329.335 301.901 332.347 299.487 334.653C298.568 336.977 298.184 339.477 298.361 341.969Z" fill="#F25D4E"/>
<path d="M285.268 413.665L303.789 414.328C303.044 412.915 302.155 411.582 301.138 410.351C299.212 408.025 297.386 405.761 294.535 405.061C290.87 404.161 288.682 406.699 286.818 405.286C284.955 403.873 285.793 400.471 285.268 400.434C284.742 400.396 283.717 403.748 283.88 407.475C283.987 409.602 284.457 411.695 285.268 413.665Z" fill="#004DBF"/>
<path d="M297.11 394.031C297.022 394.638 296.737 395.199 296.298 395.628C295.86 396.058 295.293 396.331 294.684 396.407C294.447 396.407 286.43 395.331 286.43 395.331C285.915 395.19 285.425 394.966 284.98 394.669C284.628 394.363 284.36 393.973 284.2 393.536C284.041 393.098 283.995 392.628 284.067 392.168C284.15 391.532 284.455 390.947 284.93 390.517C285.209 390.301 285.511 390.116 285.83 389.967C286.264 389.799 286.732 389.743 287.193 389.804L294.697 390.867C295.169 390.989 295.621 391.183 296.035 391.442C296.427 391.74 296.733 392.137 296.921 392.592C297.11 393.046 297.175 393.543 297.11 394.031Z" fill="#F25D4E"/>
<path d="M282.466 333.49C279.102 336.076 275.477 338.301 271.649 340.13L266.396 338.142C262.82 336.816 260.143 335.878 259.468 335.641C239.121 328.45 228.941 324.861 227.491 319.708C226.152 314.956 229.104 308.353 233.443 305.827C234.511 305.22 235.674 304.797 236.882 304.576C242.923 303.326 248.138 305.764 250.639 306.452C263.845 310.116 279.89 319.033 285.58 322.51C286.622 323.042 287.413 323.963 287.781 325.073C288.369 327.399 286.368 330.363 282.466 333.49Z" fill="#FF7562"/>
<path d="M321.322 412.013C322.572 410.025 321.709 407.599 320.759 404.973C319.073 400.46 316.303 396.431 312.693 393.242L305.001 397.644C305.198 401.078 306.069 404.439 307.565 407.536C309.066 410.6 310.291 413.114 313.055 414.127C315.819 415.14 319.796 414.465 321.322 412.013Z" fill="#004DBF"/>
<path d="M305.064 397.695C305.577 398.858 306.504 399.79 307.666 400.308C308.281 400.575 308.945 400.712 309.616 400.712C310.287 400.712 310.951 400.575 311.567 400.308C313.318 399.383 314.181 396.719 313.531 393.793L308.966 385.989L303.113 389.241L305.064 397.695Z" fill="#FFCBA9"/>
<path d="M304.376 395.093C305.442 395.369 306.561 395.369 307.627 395.093C308.619 394.802 309.537 394.304 310.322 393.631C311.107 392.958 311.74 392.127 312.179 391.192C310.662 388.59 309.145 385.989 307.627 383.388L301.125 387.94C302.213 390.329 303.288 392.717 304.376 395.093Z" fill="#FFAC80"/>
<path d="M310.879 387.94C309.957 389.954 308.342 391.57 306.327 392.492C305.502 392.851 304.623 393.071 303.726 393.142C301.85 391.091 299.186 388.14 295.922 384.688L293.984 382.625C290.344 378.636 288.156 374.384 281.165 361.015C277.62 354.23 274.443 347.258 271.648 340.13C272.485 337.221 273.93 334.523 275.888 332.214C276.05 332.014 276.238 331.814 276.413 331.614C279.449 328.342 283.41 326.073 287.768 325.111L310.879 387.94Z" fill="#FF7562"/>
<path d="M310.879 387.94C310.288 389.387 309.306 390.64 308.042 391.559C306.779 392.478 305.284 393.026 303.726 393.143C302.475 391.654 300.437 389.391 297.873 386.64C295.835 384.476 294.722 383.388 293.984 382.625C291.82 380.362 289.632 377.498 281.165 361.015C279.527 357.839 278.664 356.225 278.139 354.987C275.858 350.075 273.968 344.99 272.486 339.78C269.385 338.817 264.883 337.404 259.468 335.641C233.719 327.224 228.991 324.386 227.491 319.709C226.415 316.369 226.99 311.78 228.153 308.453C229.284 305.083 231.348 302.104 234.106 299.862C233.304 303.343 233.304 306.961 234.106 310.442C236.607 320.997 247.062 329.338 256.617 330.939C259.33 331.389 264.933 331.677 275.925 332.189L277.113 332.252C278.981 332.264 280.822 332.691 282.504 333.502C282.94 333.724 283.358 333.979 283.754 334.265C287.093 336.766 287.956 340.743 288.381 342.857C289.757 349.735 287.043 352.449 287.056 358.727C287.056 365.93 290.645 371.307 292.346 373.934C296.775 380.551 303.304 385.485 310.879 387.94Z" fill="#F25D4E"/>
<path d="M311.404 386.427C311.693 386.969 311.794 387.592 311.692 388.198C311.591 388.804 311.292 389.36 310.842 389.778C310.679 389.928 303.563 393.805 303.563 393.805C303.061 393.988 302.534 394.094 302 394.118C301.613 394.086 301.237 393.973 300.896 393.787C300.555 393.6 300.257 393.344 300.021 393.035C299.786 392.727 299.617 392.372 299.527 391.994C299.437 391.616 299.428 391.223 299.499 390.841C299.6 390.504 299.734 390.177 299.899 389.866C300.142 389.469 300.488 389.145 300.899 388.928L307.615 385.301C308.067 385.121 308.543 385.011 309.028 384.976C309.517 384.986 309.995 385.126 310.412 385.38C310.83 385.635 311.172 385.996 311.404 386.427Z" fill="#F25D4E"/>
<path d="M310.99 200.002L305.461 202.351L312.299 218.448L317.828 216.099L310.99 200.002Z" fill="#FFD200"/>
<path opacity="0.08" d="M312.402 201.977L306.874 204.326L313.711 220.424L319.24 218.075L312.402 201.977Z" fill="black"/>
<path d="M318.896 212.946L310.401 216.556L319.181 237.225L327.676 233.615L318.896 212.946Z" fill="#24285B"/>
<path d="M294.709 169.645C291.124 171.169 288.072 173.723 285.938 176.983C283.805 180.243 282.686 184.063 282.722 187.96C282.759 191.856 283.95 195.655 286.144 198.875C288.339 202.095 291.438 204.592 295.051 206.05C298.664 207.509 302.628 207.863 306.441 207.068C310.254 206.273 313.746 204.365 316.475 201.584C319.204 198.804 321.048 195.277 321.772 191.448C322.497 187.619 322.071 183.662 320.547 180.075C319.535 177.693 318.064 175.533 316.218 173.72C314.371 171.906 312.186 170.475 309.787 169.506C307.387 168.537 304.821 168.051 302.234 168.075C299.647 168.099 297.09 168.632 294.709 169.645ZM307.861 200.581C305.328 201.662 302.531 201.967 299.824 201.457C297.118 200.947 294.623 199.645 292.656 197.717C290.689 195.788 289.338 193.319 288.774 190.622C288.21 187.926 288.459 185.122 289.488 182.567C290.518 180.012 292.282 177.82 294.557 176.269C296.833 174.717 299.517 173.876 302.271 173.852C305.025 173.827 307.725 174.621 310.028 176.132C312.331 177.643 314.135 179.803 315.211 182.339C316.644 185.725 316.683 189.54 315.318 192.953C313.953 196.366 311.296 199.102 307.924 200.564L307.861 200.581Z" fill="#FFD200"/>
<path d="M306.251 201.295C313.696 199.243 318.068 191.542 316.015 184.094C313.962 176.646 306.263 172.272 298.818 174.323C291.373 176.375 287.001 184.076 289.054 191.524C291.107 198.972 298.806 203.347 306.251 201.295Z" fill="white"/>
<path d="M321.211 216.125C322.594 217.794 328.732 225.102 326.101 227.167C322.836 229.739 321.247 221.343 320.447 221.421C321.032 221.961 321.666 222.444 322.342 222.865C323.798 222.311 317.736 214.683 318.358 213.756C318.979 212.83 320.916 215.769 321.211 216.125Z" fill="#ECC19C"/>
</svg>
