<?xml version="1.0" encoding="utf-8"?>
<!-- Generator: Adobe Illustrator 19.2.1, SVG Export Plug-In . SVG Version: 6.00 Build 0)  -->
<svg version="1.1" id="layer" xmlns="http://www.w3.org/2000/svg" xmlns:xlink="http://www.w3.org/1999/xlink" x="0px" y="0px"
	 viewBox="0 0 652 652" style="enable-background:new 0 0 652 652;" xml:space="preserve">
<style type="text/css">
	.st0{fill:#FFFFFF;}
</style>
<g>
	<g>
		<path class="st0" d="M327.9,398c-1.6,0-2.8,1.2-2.8,2.7c0,1.5,1.1,2.6,2.7,2.6c1.7,0,2.8-1.2,2.8-2.6
			C330.6,399.2,329.6,398,327.9,398"/>
		<path class="st0" d="M357.7,398c-1.6,0-2.8,1.2-2.8,2.7c0,1.5,1.1,2.6,2.7,2.6c1.7,0,2.8-1.2,2.8-2.6
			C360.4,399.2,359.4,398,357.7,398"/>
		<path class="st0" d="M138.9,410.9c-0.7,3.3-1.4,6.4-1.8,9.3h-0.1c-0.4-2.9-1-5.9-1.6-9.1l-2.7-12.4h-5.2l-2.9,12.2
			c-0.8,3.4-1.5,6.6-2,9.5h-0.1c-0.4-2.7-1.1-6.1-1.8-9.4l-2.6-12.3h-5.2l6.6,27h5.3L128,413c0.8-3.1,1.3-5.7,1.8-8.6h0.1
			c0.3,2.9,0.8,5.5,1.5,8.6l2.8,12.7h5.3l7.3-27h-5L138.9,410.9z"/>
		<path class="st0" d="M160.8,405.7c-1.2,0-2.4,0.3-3.4,0.9c-1,0.5-1.8,1.3-2.4,2.2h-0.1v-11.6h-5v28.5h5V414c0-0.6,0-1.1,0.2-1.5
			c0.5-1.5,1.9-2.8,3.8-2.8c2.7,0,3.8,2.1,3.8,5v10.9h4.9v-11.5C167.6,407.9,164.1,405.7,160.8,405.7"/>
		<path class="st0" d="M196.3,409.9h-0.2l-0.2-3.7h-4.3c0.1,1.8,0.2,3.6,0.2,6.3v13.2h4.9v-10.1c0-0.6,0.1-1.1,0.2-1.5
			c0.4-2.2,2-3.7,4.4-3.7c0.6,0,1,0.1,1.4,0.2v-4.6c-0.4-0.1-0.7-0.1-1.2-0.1C199.6,405.7,197.3,407.1,196.3,409.9"/>
		<path class="st0" d="M248.6,402.3c2.2,0,4,0.5,5.3,1l1.1-3.9c-1-0.5-3.3-1.2-6.6-1.2c-8.3,0-14.4,5.4-14.4,14.3
			c0,8.2,5.2,13.6,13.8,13.6c3.2,0,5.8-0.6,7-1.2l-0.8-3.9c-1.3,0.6-3.4,1-5.4,1c-5.9,0-9.4-3.8-9.4-9.7
			C239.2,405.7,243.1,402.3,248.6,402.3"/>
		<path class="st0" d="M262.7,409.9h-0.2l-0.2-3.7h-4.3c0.1,1.8,0.2,3.6,0.2,6.3v13.2h4.9v-10.1c0-0.6,0.1-1.1,0.2-1.5
			c0.4-2.2,2-3.7,4.4-3.7c0.6,0,1,0.1,1.4,0.2v-4.6c-0.4-0.1-0.7-0.1-1.2-0.1C265.9,405.7,263.6,407.1,262.7,409.9"/>
		<path class="st0" d="M317.4,401.1l-4.8,1.4v3.6h-2.8v3.7h2.8v9.2c0,2.6,0.5,4.3,1.5,5.5c0.9,1,2.4,1.6,4.2,1.6
			c1.6,0,2.8-0.2,3.6-0.5l-0.1-3.8c-0.6,0.2-1,0.2-1.9,0.2c-1.9,0-2.5-1.2-2.5-3.6v-8.6h4.7v-3.7h-4.7V401.1z"/>
	</g>
	<rect x="325.4" y="406.1" class="st0" width="5" height="19.5"/>
	<g>
		<path class="st0" d="M344.3,416c-0.5,1.8-1,3.3-1.3,4.9h-0.1c-0.4-1.6-0.8-3.2-1.3-4.9l-3.2-9.9h-5.3l7.3,19.5h4.8l7.5-19.5h-5.2
			L344.3,416z"/>
	</g>
	<rect x="355.2" y="406.1" class="st0" width="5" height="19.5"/>
	<g>
		<path class="st0" d="M370.7,401.1l-4.8,1.4v3.6h-2.8v3.7h2.8v9.2c0,2.6,0.5,4.3,1.5,5.5c0.9,1,2.4,1.6,4.2,1.6
			c1.6,0,2.8-0.2,3.6-0.5l-0.1-3.8c-0.6,0.2-1,0.2-1.9,0.2c-1.9,0-2.5-1.2-2.5-3.6v-8.6h4.7v-3.7h-4.7V401.1z"/>
		<path class="st0" d="M387.9,416.6c-0.4,1.3-0.7,2.7-1,3.8h-0.1c-0.3-1.1-0.7-2.6-1.1-3.8l-3.5-10.5h-5.4l7.1,17.9
			c0.2,0.5,0.3,0.8,0.3,1c0,0.2-0.1,0.5-0.3,0.9c-0.7,1.3-1.8,2.5-2.7,3.1c-1,0.7-2,1.2-2.9,1.4l1.1,4.2c1.2-0.2,3.2-0.8,5.2-2.5
			c2.3-2,4.1-5.3,6.8-12.5l4.9-13.3h-5.3L387.9,416.6z"/>
	</g>
	<polygon class="st0" points="424.7,409.5 413.3,409.5 413.3,398.6 408.4,398.6 408.4,425.7 413.3,425.7 413.3,413.8 424.7,413.8 
		424.7,425.7 429.7,425.7 429.7,398.6 424.7,398.6 	"/>
	<g>
		<path class="st0" d="M529.4,405.7c-3.2,0-5.4,1.8-6.2,3.4h-0.1l-0.2-2.9h-4.3c0.1,1.7,0.2,3.6,0.2,5.8v13.7h5v-11.5
			c0-0.6,0-1.2,0.2-1.6c0.5-1.5,1.9-2.9,3.8-2.9c2.7,0,3.7,2.1,3.7,4.9v11h4.9v-11.6C536.3,407.9,532.8,405.7,529.4,405.7"/>
		<path class="st0" d="M547.8,414c-2.5-0.9-3.4-1.5-3.4-2.7c0-1.2,1-2,2.7-2c1.7,0,3.3,0.6,4.1,1.1l1-3.5c-1.1-0.6-3-1.2-5.2-1.2
			c-4.5,0-7.4,2.7-7.4,6.1c0,2.3,1.6,4.4,5.4,5.7c2.4,0.8,3.2,1.5,3.2,2.8c0,1.3-1,2.2-3.1,2.2c-1.8,0-3.9-0.7-5-1.4l-1,3.6
			c1.4,0.8,3.6,1.4,5.9,1.4c5.2,0,7.9-2.6,7.9-6.1C553,417.1,551.4,415.3,547.8,414"/>
		<path class="st0" d="M445.1,418.8c0,0.3,0,0.7-0.2,1.1c-0.4,1.4-1.9,2.7-3.8,2.7c-1.6,0-2.8-0.9-2.8-2.8c0-3,3.3-3.7,6.8-3.6
			V418.8z M449.9,413.9c0-4.2-1.8-8.2-8.1-8.2c-3.1,0-5.6,0.8-7.1,1.7l1,3.2c1.3-0.8,3.3-1.4,5.3-1.4c3.4,0,4,2.1,4,3.4v0.3
			c-7.2,0-11.6,2.4-11.6,7.4c0,3,2.2,5.8,6.1,5.8c2.5,0,4.6-1.1,5.8-2.6h0.1l0.3,2.2h4.4c-0.2-1.2-0.3-2.9-0.3-4.7V413.9z"/>
		<path class="st0" d="M463.3,422.3c-2.1,0-3.8-1.4-4.3-3.5c-0.1-0.4-0.2-0.9-0.2-1.4v-3c0-0.4,0.1-0.8,0.2-1.2
			c0.5-2.2,2.4-3.6,4.4-3.6c3.2,0,4.8,2.8,4.8,6.3C468.3,419.7,466.4,422.3,463.3,422.3 M465.1,405.7c-3,0-5.3,1.2-6.7,3.4h-0.1
			l-0.2-3h-4.3c0.1,1.8,0.2,3.9,0.2,6.5v21h4.9v-10.1h0.1c1,1.6,3,2.6,5.5,2.6c4.5,0,8.9-3.4,8.9-10.5
			C473.3,409.6,469.5,405.7,465.1,405.7"/>
		<path class="st0" d="M485.5,422.3c-2.1,0-3.8-1.4-4.3-3.5c-0.1-0.4-0.2-0.9-0.2-1.4v-3c0-0.4,0.1-0.8,0.2-1.2
			c0.5-2.2,2.4-3.6,4.4-3.6c3.2,0,4.8,2.8,4.8,6.3C490.5,419.7,488.7,422.3,485.5,422.3 M487.3,405.7c-3,0-5.2,1.2-6.7,3.4h-0.1
			l-0.2-3H476c0.1,1.8,0.2,3.9,0.2,6.5v21h4.9v-10.1h0.1c1,1.6,3,2.6,5.5,2.6c4.5,0,8.9-3.4,8.9-10.5
			C495.5,409.6,491.8,405.7,487.3,405.7"/>
		<path class="st0" d="M502.6,413.8c0.2-2,1.5-4.8,4.5-4.8c3.3,0,4.1,3,4,4.8H502.6z M507.5,405.7c-6.3,0-9.5,5.1-9.5,10.5
			c0,6,3.7,9.9,10.1,9.9c2.8,0,5.1-0.6,6.8-1.2l-0.7-3.4c-1.5,0.6-3.1,0.9-5.4,0.9c-3.1,0-5.9-1.5-6-5.1h13.1
			c0.1-0.4,0.2-1.2,0.2-2.1C515.9,410.9,513.8,405.7,507.5,405.7"/>
		<path class="st0" d="M175.1,413.8c0.2-2,1.5-4.8,4.5-4.8c3.3,0,4.1,3,4,4.8H175.1z M179.9,405.7c-6.3,0-9.5,5.1-9.5,10.5
			c0,6,3.7,9.9,10.1,9.9c2.8,0,5.1-0.6,6.8-1.2l-0.7-3.4c-1.5,0.6-3.1,0.9-5.4,0.9c-3.1,0-5.9-1.5-6-5.1h13.1
			c0.1-0.4,0.2-1.2,0.2-2.1C188.3,410.9,186.3,405.7,179.9,405.7"/>
		<path class="st0" d="M208.9,413.8c0.2-2,1.5-4.8,4.5-4.8c3.3,0,4.1,3,4,4.8H208.9z M213.7,405.7c-6.3,0-9.5,5.1-9.5,10.5
			c0,6,3.7,9.9,10.1,9.9c2.8,0,5.1-0.6,6.8-1.2l-0.7-3.4c-1.5,0.6-3.1,0.9-5.4,0.9c-3.1,0-5.9-1.5-6-5.1H222
			c0.1-0.4,0.2-1.2,0.2-2.1C222.1,410.9,220.1,405.7,213.7,405.7"/>
		<path class="st0" d="M275.2,413.8c0.2-2,1.5-4.8,4.5-4.8c3.3,0,4.1,3,4,4.8H275.2z M280,405.7c-6.3,0-9.5,5.1-9.5,10.5
			c0,6,3.7,9.9,10.1,9.9c2.8,0,5.1-0.6,6.8-1.2l-0.7-3.4c-1.5,0.6-3.1,0.9-5.4,0.9c-3.1,0-5.9-1.5-6-5.1h13.1
			c0.1-0.4,0.2-1.2,0.2-2.1C288.4,410.9,286.4,405.7,280,405.7"/>
		<path class="st0" d="M302.4,418.8c0,0.3,0,0.7-0.2,1.1c-0.4,1.4-1.9,2.7-3.8,2.7c-1.6,0-2.8-0.9-2.8-2.8c0-3,3.3-3.7,6.8-3.6
			V418.8z M307.2,413.9c0-4.2-1.8-8.2-8.1-8.2c-3.1,0-5.6,0.8-7.1,1.7l1,3.2c1.3-0.8,3.3-1.4,5.3-1.4c3.4,0,4,2.1,4,3.4v0.3
			c-7.2,0-11.6,2.4-11.6,7.4c0,3,2.2,5.8,6.1,5.8c2.5,0,4.6-1.1,5.8-2.6h0.1l0.3,2.2h4.4c-0.2-1.2-0.3-2.9-0.3-4.7V413.9z"/>
		<path class="st0" d="M270,265.8c2.2-0.4,4.4-0.1,5.9,0.6c1.5,0.7,2.5,2.1,2.8,3.7c0.1,0.3,0.1,0.6,0.1,0.8
			c0.2,2.6-0.9,5.2-3.1,7.8c-2,2.4-4.1,3.9-6.4,4.1c-0.5,0-1,0-1.5,0c-1.2-0.2-2.3-0.9-3.5-2c-0.9-0.9-1.5-2.1-1.8-3.4
			c-0.1-0.3-0.1-0.7-0.2-1.1c-0.2-2.1,0.4-4.2,1.6-6.3C265.3,267.8,267.5,266.4,270,265.8"/>
		<path class="st0" d="M606.5,316.7c-13.5-7.3-19.3-13.4-15.5-20.2c2.2-3.9,6.2-4.9,9.5-4.8c4.7,0.2,6.7,1.8,9,6.8
			c0.3,0.6,0.7,0.9,1.2,0.8c1.7-0.2,2.7-2.1,2.5-4.7c-0.2-2.3-1-4.5-2.4-6.1c-2.9-3.1-6.6-4.6-11.3-4.6c-8.8,0-15.6,5.9-17.2,12.9
			c-2.8,12.2,9,19.2,16.9,23.5c8.9,4.8,16.9,13.3,12.3,22.5c-5.7,11.4-17.2,14.6-29.8,12.6c-17.1-2.7-16.4-13-15.1-15
			c1.8-2.9,1.9-7.7,0.1-8.6c-4.4-2.3-7.2,2-8,6.1c-0.7,4.1,0,20.1,21.1,24.8c10.5,2.3,34.2,1.7,42.5-12.2
			C631.4,335.4,620.4,324.2,606.5,316.7"/>
		<path class="st0" d="M255,381.5c-1.8-0.6-11.1-4.2-15.5-13.6c-4.5-9.7-6.5-22.1-6.5-36.6c0-8.8,0.8-19.4,2.7-32.5
			c3.5-23.6,11.1-41.7,11.2-56.1c0-6.7-0.9-13.2-5.2-16.7c-3.3-2.6-8.7-4.3-13.6-4.4c-12.6-0.3-31,10.5-46.4,35.8
			c-9.7,15.9-22.5,51.6-24.5,64c-0.8-5.7-3.2-35-10.5-57.7c-12.6-38.9-28.9-46.3-37.4-46.1c-15,0.4-30.2,20.2-36.6,44.5
			c-3.8,14.5-7,32.4-9.1,54.4c-4.7-9.5-8-16-10.3-19.5c-6.7-10.4-13.4-16.7-20.3-17.5c-1.7-0.2-4.1-0.3-5.9,0.8
			c-0.5,0.4-1.2,0.7-1.5,1.7c-0.3,0.9,0.1,2,1.4,2.5c4.6,2,12.3,9.4,19.5,23.9c5.1,10.4,8,19.6,10.6,28.2
			c3.8,12.3,5.9,23.5,12.3,23.3c2.4-0.1,4.2-0.7,5-2.3c1.3-2.6,1-8.3,0.9-11.3c-0.2-4.2-1.2-17.9-1.3-26.1
			c-0.1-15.6,1.6-34.6,6.1-54.6c2.8-12.5,13.5-37.3,25.3-37.2c16.6-0.4,24.5,21,30.2,42.3c4.2,15.6,8.9,40.2,13.4,66.7
			c0.3,2.8,0.9,5,2,6.6c1.1,1.6,2.8,2.6,4.7,2.6c0.1,0,0.3,0,0.4,0c2.4-0.1,4.5-1.5,5.8-3.7c1.4-2.2,2.1-5,2.9-8.8
			c5.4-25.7,8.1-42.8,24.1-72.1c4.7-8.6,8.5-13.1,14.4-18.1c5.9-4.9,12.2-7.7,16.7-8.2c5.6-0.7,13.1-0.2,14.3,13.5
			c1.1,13-9.5,42.3-11.3,72.3c-1.1,17.6-1,43.2,9.6,58.6c5.6,8.2,14.1,10.5,21,8.8c1.1-0.3,2-1,2.7-1.9c0.6-0.9,1.1-1.9,0.8-3.2
			C257.1,382.6,256.2,381.9,255,381.5"/>
		<path class="st0" d="M577.4,382.9c-0.6-0.2-1.2-0.3-2-0.3c-1,0-2.8-0.4-4.9-1.7c-4.2-2.5-9.1-9.5-14.1-20.8
			c-3.6-8-6.4-15.9-8.4-23.7c-4.1-16-6.7-30.5-7.6-43.5c-1.8-25.7,2.7-45.3,13-59.1c4.2-5.6,8-8.3,11-8.4c2.1-0.1,3.4,0.6,4.6,2.4
			c1.2,1.9,2.1,5,2.4,9.4c0.4,6.2,1,20.9-4.4,38.3c-3.1,10.1-7.5,21.4-14.4,33.6c-1.1,2-2,3.5-1.8,5.2c0.1,0.9,0.9,1.9,2,1.9
			c1.3,0,2.2-1.4,3.2-3.1h0c7-12.1,11.5-20.5,13.7-25.2c10.8-22.7,15.8-40.5,14.9-53.6c-0.4-5.7-1.8-10.2-4.5-13.1
			c-2.7-3-6.5-4.2-11.1-3.9c-6.7,0.5-13.4,4.2-20.1,11c-15.2,15.3-21.4,40.5-19,75.2c0.6,8.2,1.7,16.1,3.3,23.7
			c-9.4,18.2-19.8,27.4-30.4,28.1c-5.2,0.4-10.3-1.3-14-5.7c-3.6-4.3-5.8-10.4-6.4-18.6c-0.3-3.5-0.2-7.4,0.3-11.5
			c0.9-7.9,3-13.8,5.9-18c2.7-4,9-7.9,12.9-4.8c3.2,2.6,1.1,8.7-0.7,11.5c-3.8,5.9-5.4,7.8-9.3,11c-1.3,1.1-2.6,1.7-3.4,2.6
			c-0.8,0.8-1.3,1.5-1.3,2.9c0,0.6,0.5,1.2,1,1.5c1.2,0.7,3-0.1,4.4-0.6c5.9-2.2,12.1-6.7,17.8-17c3.5-6.4,5.5-19-2.1-23
			c-12.8-6.7-23.5,3.9-27.8,10.5c-4.9,7.6-8.4,19.6-8,30.9c0.1,2.3,0.3,4.6,0.6,6.8c-1.8,2.3-3.8,4.9-4.7,5.9
			c-3.4,3.6-6.5,5.3-7.6,5.2c-0.4,0-1.2-0.3-1.5-0.6c-1.7-1.8-2.1-4.6-2.1-10.4c0-1.4,0.5-6,1.3-11.6c0.5-3.9,0.9-6.8,0.9-8.7
			c0-0.9-0.1-1.6-0.3-2.3c-0.9-2.5-2.4-3.8-5.2-3.8c-2.4,0-4.6,0.9-6.4,4c-10,16.6-16.6,26-20.7,30.4c-5.7,6-10.2,8.6-12.8,8.8
			c-1.4,0.1-2.3-0.4-2.8-1.3c-1.4-2.8-0.9-7.4-0.6-9.3c1.5-10.1,5-19.7,9.9-28.3c5.8-10,12.8-15.7,19.3-16.6c4.6-0.6,9,1.9,13.2,7.5
			c0.5,0.8,1.1,1.2,1.8,1.1c2.3-0.3,3.2-2.6,2.6-6.8c-0.2-1.2-0.5-2.5-1.1-3.8c-2.5-5.6-5.5-8.9-12.3-8.7
			c-11.2,0.3-21.9,10.8-31.9,27c-8.8,14.2-13.3,25.9-13.3,35.3c0,3.8,0.8,6.8,2.6,9c1.8,2.1,4.6,3.2,7.9,3.2
			c6.5-0.1,13.8-4.9,22.6-14c5.3-5.5,9.4-10.5,12.3-15.2c0,1,0,2,0.1,3c0.4,4.6,1.3,9.2,4.2,13.2c1.7,2.3,6.1,5.1,10.9,5.1
			c5.7,0,12.5-4.5,16.1-8.6c1.5,4.1,3.5,7.7,6,10.6c5.4,6.2,12.7,9,21.3,8.4c8.1-0.6,16.3-4.4,24.1-12c3.6-3.5,6.9-8.2,9.7-12.6
			c1.2,4.1,2.5,8.2,4.1,12.1c5.7,14.8,13.1,25.7,22,32.8c4.8,3.9,9.2,5.8,13.3,5.5c0.5,0,0.9-0.1,1.4-0.2c0.7-0.2,1.2-0.3,1.6-0.7
			c0.4-0.3,1-0.9,0.9-1.8c0-0.1,0-0.3-0.1-0.5C578.6,383.5,578,383.1,577.4,382.9"/>
		<path class="st0" d="M404.5,382.9c-1.6-0.9-3.3-1.3-5-3c-1.8-1.7-3.7-4.6-5.3-10.7c-0.8-2.9-1.7-7.7-1.9-13.9
			c-0.2-6.1,0.4-13.7,2.5-22.4c3.2-13.1,8.4-24.4,8.2-32.1c-0.1-2.6-0.8-4.9-2.7-6.4c-2.1-1.8-5-2.6-8.4-2.5
			c-8.3,0.3-19.4,6-28,19.1c-7.1,10.8-10.9,20.6-12.8,27.3c-0.4-13.3,1.8-27.9,6.4-43.9c3.1-10.7,12.3-33.4,18-46.2
			c2.3-5.1,4-9,5.2-11.7c0.6-1.3,1-2.4,1.3-3.1c0.1-0.4,0.3-0.7,0.3-0.9c0.1-0.3,0.2-0.4,0.2-0.9l-0.1-0.4c-1-3-3.6-4.6-6.7-4.5
			c-0.7,0-1.5,0.2-2.1,0.4c-3.6,1.1-6.5,4.8-9.6,11.9c-3.2,7.3-11.2,28.8-14.6,42.8c-3,12.2-5,23.3-6.1,33.2
			c-0.1,0.2-0.1,0.5-0.2,0.8c-2.4,10.7-9.9,22.5-14.3,26.5c-6.6,6-12.9,8.9-19.9,8.9c-2.7,0-5.3-0.5-7.1-2.3c-2-2-4-5.5-4.3-10
			c-0.6-7.2,0.9-15.7,4.6-24.5c2.3-5.5,5.7-10.3,8.4-12.9c2.7-2.6,6-4.2,8.6-3.7c0.8,0.2,2.4,1.1,3.8,3c1.6,2.1,3.6,3.6,5.8,3.9
			c0.3,0,0.6,0,0.9,0c1.7,0,3.3-0.5,4.2-1.6c0.9-1.1,1.2-2.6,1.1-4.4c0-0.6-0.1-1.2-0.3-1.9c-0.6-2.9-2.1-5.3-4.3-6.9
			c-2.3-1.6-5.3-2.3-8.8-2.3c-11.2,0-22.8,11-28.8,20.9c-4.5,7.6-7,15.7-7.9,22.7c-1.5,5.8-2.8,11.6-5.5,15.3
			c-4.5,6.3-9.1,9-12.5,9.2c-1.9,0.2-3.2-0.3-4.5-1.6c-1.2-1.3-2.3-3.5-3-6.6c-2.3-13.3,1.6-26.7,4-34c2.7-8.2,5-12.8,5-15.3
			c0-0.5,0-1.1,0-1.7c-0.2-2.7-1.6-4.8-3.9-5.7c-1.3-0.5-2.6-0.8-3.9-0.6c-2.2,0.2-4,1.6-5.4,3.6c-2.3,3.4-3.8,6.7-4.8,10
			c-3.4,10.6-6.8,25.5-3.2,39.8c1.9,7.8,6.2,12.9,11.7,15.5c2.4,1.2,6.3,1.8,9.5,1.1c8.8-1.7,14.9-8.5,18-12c0,0,0,0,0,0
			c1.2,2.9,2.8,5.2,4.9,7c3.2,2.8,7.4,4.1,12.3,4.1h0.1c6.9,0,14.9-2.8,22.4-8.1c7-4.9,12.4-11,16.6-17c0.2,5.5,0.9,10,1.8,14.5
			c0.4,2,1.3,4.5,2.5,5.8c1.2,1.3,2.3,2.2,4,2.1c1-0.1,1.8-0.5,2.4-1.1c1.2-1.1,1.5-3,2.3-6.2c1.6-6.9,8.8-24.7,14.6-33.5
			c5-7.7,11.1-12.3,16.8-12.4c1.2,0,2.4,0.3,3.1,1.2c0.7,0.8,1.3,3.1,1.4,5.5c0.4,11.6-6.4,33.1-5.9,52.3c0.1,5.2,0.9,10.2,2.4,14.9
			c2.7,8.4,8.3,12.4,13.9,12.2c1.1,0,2.2-0.5,3.1-1.2c0.8-0.7,1.6-1.6,1.5-2.9C406.3,384.5,405.6,383.5,404.5,382.9"/>
		<path class="st0" d="M620.9,287.4h0.4c0.5,0,0.9-0.2,0.9-0.6c0-0.4-0.3-0.6-0.8-0.6c-0.2,0-0.4,0-0.5,0V287.4z M620.9,289.6H620
			v-4c0.4-0.1,0.9-0.1,1.5-0.1c0.8,0,1.1,0.1,1.4,0.3c0.2,0.2,0.4,0.5,0.4,0.8c0,0.5-0.3,0.8-0.8,1v0c0.4,0.1,0.6,0.4,0.7,1
			c0.1,0.6,0.2,0.8,0.3,1h-1c-0.1-0.1-0.2-0.5-0.3-0.9c-0.1-0.4-0.3-0.6-0.8-0.6h-0.4V289.6z M621.5,284.4c-1.7,0-3.1,1.4-3.1,3.2
			c0,1.8,1.3,3.2,3.1,3.2c1.7,0,3-1.4,3-3.2C624.6,285.8,623.3,284.4,621.5,284.4L621.5,284.4z M621.5,283.6c2.3,0,4.1,1.8,4.1,4
			c0,2.3-1.8,4-4.1,4c-2.3,0-4.1-1.7-4.1-4C617.4,285.3,619.2,283.6,621.5,283.6L621.5,283.6z"/>
		<path class="st0" d="M557.5,405.2h0.4c0.5,0,0.8-0.2,0.8-0.5c0-0.3-0.2-0.5-0.8-0.5c-0.2,0-0.4,0-0.5,0V405.2z M557.5,407.2h-0.8
			v-3.6c0.3,0,0.8-0.1,1.4-0.1c0.7,0,1,0.1,1.2,0.3c0.2,0.2,0.4,0.4,0.4,0.8c0,0.4-0.3,0.7-0.7,0.9v0c0.3,0.1,0.5,0.4,0.6,0.9
			c0.1,0.5,0.2,0.7,0.3,0.9h-0.9c-0.1-0.1-0.2-0.4-0.3-0.9c-0.1-0.4-0.3-0.5-0.7-0.5h-0.4V407.2z M555.3,405.4
			c0,1.6,1.2,2.9,2.8,2.9c1.5,0,2.7-1.3,2.7-2.8c0-1.6-1.2-2.9-2.8-2.9C556.5,402.5,555.3,403.8,555.3,405.4 M561.7,405.4
			c0,2-1.6,3.6-3.7,3.6c-2,0-3.7-1.6-3.7-3.6c0-2,1.6-3.6,3.7-3.6C560.1,401.8,561.7,403.4,561.7,405.4"/>
	</g>
</g>
</svg>
