<?xml version="1.0" encoding="utf-8"?>
<!-- Generator: Adobe Illustrator 25.2.0, SVG Export Plug-In . SVG Version: 6.00 Build 0)  -->
<svg version="1.1" id="Layer_1" xmlns="http://www.w3.org/2000/svg" xmlns:xlink="http://www.w3.org/1999/xlink" x="0px" y="0px"
	 viewBox="0 0 75 75" style="enable-background:new 0 0 75 75;" xml:space="preserve">
<style type="text/css">
	.st0{fill:#CF202F;}
	.st1{fill:#FFFFFF;}
</style>
<g>
	<circle class="st0" cx="37.5" cy="37.5" r="37.5"/>
	<path class="st1" d="M53.3,51.79c-0.77-3-0.29-9.2,0.18-12.83c0.89-6.53,2.73-10.15,2.74-14.13c0-1.85-0.58-5.68-4.62-5.84
		c-9.98-0.34-13.66,23.94-14.16,27.37c-0.2-1.57-0.09-10.53-0.83-17.07c-1.06-9.65-3.15-10.21-5.21-10.37
		c-7.47-0.55-8,13.86-7.9,27.6c0-2.81,0.35-8.53-2.29-11.47c-1.31-1.45-3.32-1.31-1.98,0.62c0.15,0.2,0.31,0.66,0.52,0.96
		c2.59,3.9,2.05,19.49,4.68,19.37c0.83,0,2.07-0.37,1.96-3.88c-0.31-10.56,0.49-29.47,4.09-29.49c3.81,0,2.97,18.78,4.08,26.1
		c0.62,3.71,4.44,4.02,5.68-1.25c1.59-7.04,1.67-11.56,5.16-18.92c4.63-9.78,8.45-6.55,6.81,0.24c-0.89,3.48-3.67,11.89-2.26,21.54
		c0.41,2.81,2.22,6.36,3.56,5.6c0.77-0.44,0.38-1.78-0.22-4.13"/>
</g>
</svg>
